<svg width="179" height="26" viewBox="0 0 179 26" fill="none" xmlns="http://www.w3.org/2000/svg">
<g id="dw2 1" clip-path="url(#clip0_36_775)">
<rect width="179" height="26" fill="#F5F1E1"/>
<path id="Vector" d="M174.336 12.9304L173.86 12.7867C172.314 12.3844 171.451 12.0109 171.451 11.2925C171.451 10.6028 172.254 10.0568 173.473 10.0568C175.317 10.0568 176.15 11.0626 176.626 12.0109L177.667 11.9247C177.429 10.9764 177.25 10.2867 177.191 9.74076C176.864 9.65455 176.537 9.65454 175.972 9.51087C175.317 9.42466 174.514 9.36719 173.801 9.36719C170.083 9.36719 168.239 10.689 168.239 12.2407C168.239 13.735 170.41 14.5109 172.373 14.9706L172.7 15.0568C174.157 15.4591 175.05 15.9189 175.05 16.781C175.05 17.7293 174.068 18.189 172.879 18.189C170.618 18.189 169.161 16.6373 168.685 15.8614L167.644 16.0051C167.882 16.8672 168.12 17.5568 168.358 18.1028C167.555 18.0166 166.99 17.7867 165.86 16.9247C164.403 15.7465 162.886 14.4247 161.429 13.1028C162.41 12.4132 163.54 11.6948 164.819 11.0051C166.038 10.3155 166.752 10.1431 168.061 10.0568V9.59708H161.845V10.0568L162.737 10.1431C163.392 10.2293 163.154 10.5453 162.827 10.8327C161.459 11.9247 160.09 12.9304 158.395 14.1086V11.781C158.395 10.2867 158.544 10.0568 160.09 9.99937V9.5396H152.893V9.99937C154.499 10.0856 154.678 10.3155 154.678 11.781V16.3787C154.678 17.2408 154.589 17.7867 154.261 17.9304C153.696 18.1603 153.369 18.0166 152.983 17.7005C152.566 17.3844 152.09 16.8385 151.287 16.0626C150.633 15.4304 149.741 14.4247 149.444 14.0224C151.139 13.6201 152.418 12.8442 152.418 11.6948C152.418 10.8327 151.704 10.2005 150.812 9.91317C149.919 9.59708 148.7 9.4534 146.856 9.4534H139.421L139.57 9.91317C141.116 9.99938 141.176 10.2293 141.176 11.6948V16.2925C141.176 17.7867 141.027 18.0166 139.332 18.0741V18.5339H146.708V18.0741C145.102 17.9879 144.923 17.758 144.923 16.2925V14.5683H145.25C145.667 14.5683 146.053 14.7982 146.232 15.0281C146.797 15.804 147.451 16.666 148.165 17.2982C149.146 18.0741 149.86 18.6201 153.102 18.5339C153.34 18.5339 154.232 18.4476 154.47 18.4476H160.12V17.9879C158.514 17.9017 158.276 17.6718 158.276 16.2063V13.9362H158.366C160.061 15.4879 162.499 17.5281 163.362 18.3902H168.685V18.0741C169.012 18.1603 169.399 18.2178 169.905 18.304C170.559 18.4476 171.511 18.5339 172.403 18.5339C176.031 18.5339 178.381 17.2982 178.381 15.5741C178.381 14.166 176.507 13.4764 174.336 12.9304ZM147.035 13.7925C146.618 14.0224 146.053 14.0224 145.25 14.0224H144.923V10.8327C144.923 10.2867 145.012 10.1431 145.964 10.1431C146.856 10.1431 148.313 10.689 148.313 12.0109C148.403 12.7005 147.986 13.304 147.035 13.7925Z" fill="black"/>
<path id="Vector_2" d="M133.44 9.34007C130.05 9.34007 127.7 10.2883 126.481 11.524C127.284 10.1159 127.76 9.19639 127.849 9.02398C128.979 7.29984 129.217 7.15616 131.091 6.98375V6.35156H123.329V6.98375L124.548 7.06995C125.916 7.15616 126.005 7.47225 125.589 8.56421C125.113 9.74237 123.894 12.386 122.764 14.6562L122.674 14.57L117.738 6.3803H115.477L111.195 14.57L111.106 14.6562L108.042 8.19065C107.626 7.41479 107.715 7.1849 108.935 7.09869L109.975 7.01249V6.3803H99.8639V7.01249C101.41 7.09869 101.975 7.32858 102.838 8.8803L103.254 9.56995H98.4066L94.7783 15.2021L90.6445 9.56995H85.1426V10.0297C86.9865 10.1159 87.2541 10.432 86.9865 12.2136L86.7486 15.0872C86.5999 16.409 86.5107 17.1274 86.3322 17.5872C86.3322 17.7309 86.243 17.9033 86.0943 17.9895C85.9456 17.9895 85.6185 17.4435 85.2913 16.9837C84.3991 15.4895 83.4474 13.8516 82.466 12.1562L80.9195 9.51248L79.3731 9.74237L74.8526 17.07C74.7634 17.1562 74.7634 17.2136 74.7039 17.2998C74.5552 17.5297 74.3768 17.7596 74.1389 17.932C73.663 18.2481 72.295 18.3343 71.4028 18.3343C70.689 18.3343 70.1834 18.3343 69.7968 18.1906C69.3805 18.047 69.321 17.5585 69.321 16.8688V14.5412H70.4511C72.4734 14.5412 72.4734 14.6274 72.7113 15.8631H73.7522V12.501H72.7113C72.4734 13.5929 72.3842 13.6791 70.4511 13.6791H69.321V10.9493C69.321 10.4895 69.4102 10.3171 70.2132 10.3171H70.6295C71.8489 10.3171 72.6519 10.4033 72.979 10.6332C73.3954 10.8631 73.6333 11.3228 73.8712 12.0412L74.9121 11.955C74.8229 10.8631 74.6742 9.85731 74.6742 9.62743H63.6704V10.0872C65.2169 10.1734 65.3656 10.4033 65.3656 11.8688V16.5527C65.3656 17.8745 65.2169 18.1044 63.9976 18.2768C63.7596 18.1906 63.5812 18.047 63.3433 17.8745C62.9269 17.5585 62.4511 17.0987 61.7373 16.3803C61.083 15.7481 60.1908 14.7424 59.8934 14.3401C61.5886 13.9378 62.8674 13.1619 62.8674 11.9263C62.8674 11.0642 62.1537 10.432 61.2615 10.1447C60.3693 9.74237 59.1499 9.6849 57.3953 9.6849H50.3172C49.8414 9.05271 49.0979 8.50674 48.3841 8.13317C46.2131 6.89754 42.8227 6.40904 38.8376 6.40904H29.2911V7.1849C31.4026 7.27111 31.7 7.41479 31.7 9.45501V15.6906C31.7 17.7309 31.4621 17.9608 29.0234 18.1044V18.7941H37.5588C45.1425 18.7941 51.2986 16.7539 51.2986 12.0125C51.2986 11.3803 51.0607 10.7769 50.7336 10.1447C51.7745 10.2309 51.9529 10.6044 51.9529 11.9263V16.6102C51.9529 18.1619 51.8042 18.3343 50.1685 18.3918V18.8516H57.3656V18.3918C55.8191 18.3056 55.5812 18.0757 55.5812 16.6102V14.886H55.9083C56.3247 14.886 56.6221 15.1159 56.8897 15.432C57.4548 16.2079 58.1091 17.0699 58.7336 17.7021C59.6258 18.5642 60.4288 18.9378 63.6704 19.024C64.1463 19.024 64.4734 18.9378 64.6518 18.9378H77.8861V18.478L77.2318 18.3918C76.1909 18.3056 76.1909 18.0757 76.518 17.4435L77.1723 16.1217H80.8898L81.6928 17.6159C82.0199 18.1619 81.9307 18.3918 81.1277 18.478L80.4734 18.5642V19.024H90.4958V18.5642C88.9493 18.478 88.3843 18.2481 88.3248 17.7021C88.2356 17.2424 88.2356 16.6102 88.2356 15.3746L88.3843 12.2424H88.4735L92.8452 18.8803H94.1241L98.7337 11.7826H98.823L98.9122 16.7826C98.9122 18.3343 98.823 18.5067 97.0683 18.5642V19.024H104.503V18.5642C102.808 18.478 102.719 18.3343 102.659 16.7826L102.421 12.0125C102.332 10.6906 102.421 10.4608 103.641 10.2883L108.488 19.1964H110.987L115.358 11.3803H115.448L120.206 19.1964H122.704C123.686 17.3286 124.548 15.5182 125.381 13.9665C125.381 14.1102 125.381 14.1964 125.381 14.3688C125.381 16.955 128.444 18.9665 133.292 18.9665C137.812 18.9665 141.292 17.0987 141.292 14.0527C141.113 11.2079 137.812 9.34007 133.44 9.34007ZM39.5811 17.8458C38.0346 17.8458 37.3209 17.4435 37.3209 15.7481V8.42053C37.3209 7.96076 37.3209 7.47226 37.4696 7.47226C37.7075 7.38605 38.1238 7.32858 38.8376 7.32858C41.5737 7.32858 45.2317 8.50674 45.2317 12.5585C45.2317 15.978 42.4064 17.8458 39.5811 17.8458ZM57.6927 14.024C57.2763 14.2539 56.7113 14.2539 55.9975 14.2539H55.6704V10.978C55.6704 10.432 55.7596 10.2883 56.7113 10.2883C57.6035 10.2883 58.9715 10.8343 58.9715 12.2424C58.9715 12.8458 58.5551 13.5642 57.6927 14.024ZM77.5589 15.2596L78.927 12.5297H79.0162L80.4734 15.2596H77.5589ZM133.529 18.0757C131.18 18.0757 129.574 16.2079 129.574 13.7079C129.574 11.2941 131.12 10.0297 132.875 10.0297C134.897 10.0297 136.593 11.5814 136.593 14.3975C136.682 16.8975 135.641 18.0757 133.529 18.0757Z" fill="black"/>
<path id="Vector_3" d="M10.1129 13.0747C10.2021 13.0747 10.2021 13.0747 10.2616 12.9885C10.1723 12.7586 10.2616 12.6724 10.4995 12.6724C10.4103 12.8161 10.6482 13.1322 10.9158 13.2184C11.1538 13.3046 11.243 13.6782 11.243 13.7644C11.4809 13.9942 12.5218 13.9942 12.7894 13.9942C12.8787 13.8506 12.9381 13.7644 13.3545 13.7644C13.6816 13.7644 13.8303 13.8506 14.0683 14.0805C14.217 14.1667 14.0683 13.9942 14.4846 13.9368C14.8118 13.9368 14.9605 13.7931 15.1389 13.7069C15.2876 13.6207 15.2876 13.5632 15.3768 13.477C15.466 13.3908 15.466 13.3333 15.5255 13.2471C15.6147 13.1609 15.6147 12.931 15.6147 12.8448C15.6147 12.7586 15.2876 12.931 15.2876 12.931C15.0497 13.0172 14.9605 12.8448 14.9605 12.7874C14.9605 12.7011 14.9605 12.6437 14.8712 12.6437C14.782 12.6437 14.782 12.5575 14.782 12.5C14.6928 12.5 14.6928 12.4138 14.6928 12.4138C14.782 12.4138 14.6928 12.2701 14.6928 12.2701C14.6036 12.2701 14.5441 12.2701 14.5441 12.1839C14.5441 12.0977 14.6333 12.0402 14.6928 11.954C14.782 11.8678 14.782 11.8103 14.6928 11.7241C14.6036 11.5805 14.6036 11.408 14.6928 11.3218C14.5441 11.3218 14.4549 11.4655 14.4549 11.4655C14.3657 11.3218 14.3657 11.1494 14.4549 11.0632C14.3657 11.1494 14.3062 11.2069 14.3062 11.2069C14.3954 10.2586 15.5255 9.97126 15.8527 9.88505C16.4177 9.79885 17.2207 9.74137 17.1315 10.1149C17.1315 10.1149 17.2802 9.79884 16.9828 9.71264C17.1315 9.71264 17.3099 9.85632 17.2207 10.0287C17.3099 9.94252 17.4586 9.94252 17.5478 10.0287C17.4586 10.0287 17.3099 10.1149 17.3099 10.1724C17.4586 10.1724 17.637 10.2586 17.7857 10.8046C17.875 11.0345 17.9344 11.8103 17.637 12.0402V11.954C17.637 11.954 17.5478 12.0977 17.3099 12.0977C17.3099 12.0977 17.3099 12.1839 17.3099 12.2414C17.3099 12.2414 17.637 12.0977 17.7857 12.1552C17.7857 12.1552 17.637 12.4713 17.5478 12.5575C17.7857 12.5575 18.44 12.9598 18.44 13.8793C18.5292 14.023 18.5887 14.7414 18.5887 15.2011C19.1538 14.5115 19.8081 13.3333 20.1352 11.4655C20.5516 9.42528 20.3731 7.47126 19.4214 5.54597C18.0534 2.67241 14.7225 0.632185 11.5998 0.316093C12.2541 0.0862086 12.8787 0 13.4437 0C13.3545 0 13.295 0 13.2058 0C8.2095 0 3.74851 2.64367 1.48828 6.63792C4.37305 7.93103 8.17976 10.8333 10.1129 13.0747Z" fill="black"/>
<path id="Vector_4" d="M8.74353 24.3091C8.89223 24.3091 9.15989 24.1655 9.30859 23.9068C9.54651 23.677 9.87364 23.4471 9.96286 23.2747C10.1116 23.131 10.29 22.8149 10.4387 22.585C10.5874 22.2689 10.8551 21.8953 10.8551 21.5793C10.7064 21.4356 10.6171 21.4356 10.4387 21.3494C10.3495 21.2632 10.3495 21.2057 10.5279 21.1195C10.6766 20.9758 10.7658 20.8034 10.7658 20.8034H10.8551C10.7064 20.7172 10.29 20.5735 9.72495 20.3436C9.07067 20.1137 7.55393 19.2517 6.75096 18.4758C7.46471 18.8781 8.68405 19.3379 9.90339 19.4241H9.81416C9.81416 19.4241 9.48703 19.1942 9.72495 19.0218C9.81417 18.9356 9.72495 19.0218 9.96286 19.108C10.1116 19.108 10.2008 19.108 10.3792 19.0218C10.5279 18.9356 10.8551 18.8781 11.093 18.7057C11.3309 18.562 11.5093 18.4758 11.7473 18.0735C11.8365 17.9873 11.8365 17.8436 11.8365 17.6712C11.8365 17.6712 11.8365 17.6712 11.5986 17.585C11.4499 17.4988 11.3606 17.585 11.3606 17.3551C11.3606 17.1252 11.4499 16.7229 11.4499 16.6655C11.4499 16.608 11.5391 16.5793 11.777 16.5793C11.8662 16.3494 11.9257 16.0333 12.0149 15.8034C12.0149 15.8034 11.9257 15.8034 11.777 15.8034C11.6878 15.8034 11.6283 15.8896 11.5391 15.8896C11.5391 15.9758 11.6283 16.0333 11.6283 16.1195C11.7175 16.3494 11.3904 16.2632 11.3904 16.2057C11.3904 16.2057 11.3012 16.062 11.3012 15.9758C11.1525 16.062 10.974 15.9758 10.974 15.8896C10.8848 15.6597 10.8848 15.5735 10.8253 15.4298C10.7361 15.3436 10.5874 15.3436 10.6766 15.2C10.6766 15.1137 10.7658 15.0563 10.8253 15.0563C10.8253 15.0563 10.9145 14.9701 10.974 14.9701C10.8848 14.7402 10.7361 14.4241 10.4982 14.108C10.171 14.108 10.2603 14.0218 10.0818 13.7057C9.93312 13.4758 9.99261 13.4758 9.75469 13.3896C9.60599 13.3034 9.60599 13.1597 9.66547 13.0735C7.55393 10.7459 3.68775 7.92984 1.27882 6.83789C0.565059 8.6195 0 10.5735 0 12.6137C0 17.9298 3.47957 22.4413 8.38665 24.2517V24.1655C8.41639 24.1655 8.47587 24.3091 8.74353 24.3091Z" fill="black"/>
<path id="Vector_5" d="M12.3719 14.7139C12.2827 14.7139 11.9556 14.6277 11.569 14.4841C11.331 14.3979 11.1526 14.2542 11.0039 14.168C11.1526 14.3979 11.2418 14.6277 11.331 14.8002C11.4797 14.6565 11.6582 14.8002 11.6582 14.9438C11.7474 15.03 11.7474 15.03 11.8069 15.1737C11.8961 15.2599 12.0448 15.1737 12.2232 15.1737L12.3719 14.7139Z" fill="#F5F1E1"/>
<path id="Vector_6" d="M18.1108 0.917969C20.4603 1.92372 22.3934 3.79153 23.3748 5.83176C25.1592 9.50992 24.9807 13.3318 22.2447 16.8375C21.6796 17.5272 18.5272 21.0616 12.8766 20.9754C12.8766 21.0616 12.7874 21.1191 12.7874 21.1191C12.7874 21.1191 12.7874 21.2053 12.8766 21.2628C12.9658 21.349 12.7874 21.5789 12.6387 21.8088C12.4008 22.0386 12.4008 22.2685 12.2223 22.1249C12.0736 21.9812 11.9844 22.0386 11.9844 22.0386C11.9844 22.0386 11.568 22.4409 11.4193 22.7283C11.2706 23.0444 11.1814 23.2743 11.2706 23.5904C11.3599 23.734 11.3599 24.1363 11.1219 24.2226C10.7948 24.2226 10.5569 24.2226 10.319 24.3662C10.1703 24.4524 9.90261 24.5961 9.75391 24.6823C10.884 24.9984 12.0141 25.1421 13.2335 25.1421C20.5792 25.1421 26.5569 19.5099 26.5569 12.5846C26.4975 7.29728 23.0179 2.78578 18.1108 0.917969Z" fill="black"/>
<path id="Vector_7" d="M15.763 15.8029C15.763 15.4006 15.6738 15.1133 15.6738 15.1133L15.0195 15.257C15.1682 15.4868 15.4359 15.9466 15.6738 16.2052C15.763 16.119 15.763 16.0616 15.763 15.8029Z" fill="#F5F1E1"/>
<path id="Vector_8" d="M13.3232 18.305C13.4719 18.2188 13.8883 18.1613 14.2154 17.9889C14.2154 17.9889 14.2154 17.9027 14.1262 17.759C14.037 17.6728 13.8883 17.0694 13.7098 16.5234C13.7098 16.5234 13.6206 16.1211 13.5611 16.1211C13.4719 16.1211 13.4719 16.6671 13.4719 16.8108C13.4719 17.0406 13.4719 16.9544 13.4719 16.9544C13.4719 16.9544 13.6206 16.9544 13.6206 17.0406C13.6206 17.1268 13.4719 17.7303 13.4719 17.9027C13.4719 17.9889 13.3827 17.9889 13.3232 17.9027C13.1745 17.9027 12.9068 17.8165 12.9068 17.8165C12.9068 17.8165 12.8176 18.2188 12.9068 18.5062C13.0258 18.4774 13.1745 18.305 13.3232 18.305Z" fill="#F5F1E1"/>
</g>
<defs>
<clipPath id="clip0_36_775">
<rect width="179" height="26" fill="white"/>
</clipPath>
</defs>
</svg>
