<svg width="20" height="20" viewBox="0 0 20 20" fill="none" xmlns="http://www.w3.org/2000/svg">
<g id="octicon:play-24" clip-path="url(#clip0_205_385)">
<path id="Vector" d="M7.91846 12.9867V7.01339C7.91858 6.93865 7.9388 6.86532 7.97701 6.80109C8.01521 6.73685 8.06999 6.68408 8.1356 6.64829C8.20121 6.6125 8.27524 6.59502 8.34993 6.59768C8.42462 6.60033 8.49722 6.62303 8.56012 6.66339L13.2068 9.64922C13.2656 9.68692 13.314 9.73881 13.3476 9.80011C13.3811 9.86142 13.3987 9.93017 13.3987 10.0001C13.3987 10.0699 13.3811 10.1387 13.3476 10.2C13.314 10.2613 13.2656 10.3132 13.2068 10.3509L8.56012 13.3376C8.49722 13.3779 8.42462 13.4006 8.34993 13.4033C8.27524 13.4059 8.20121 13.3884 8.1356 13.3526C8.06999 13.3169 8.01521 13.2641 7.97701 13.1998C7.9388 13.1356 7.91858 13.0623 7.91846 12.9876V12.9867Z" fill="black"/>
<path id="Vector_2" d="M0.83252 9.99992C0.83252 4.93742 4.93669 0.833252 9.99919 0.833252C15.0617 0.833252 19.1659 4.93742 19.1659 9.99992C19.1659 15.0624 15.0617 19.1666 9.99919 19.1666C4.93669 19.1666 0.83252 15.0624 0.83252 9.99992ZM9.99919 2.08325C7.89955 2.08325 5.88592 2.91733 4.40126 4.40199C2.91659 5.88665 2.08252 7.90029 2.08252 9.99992C2.08252 12.0995 2.91659 14.1132 4.40126 15.5978C5.88592 17.0825 7.89955 17.9166 9.99919 17.9166C12.0988 17.9166 14.1125 17.0825 15.5971 15.5978C17.0818 14.1132 17.9159 12.0995 17.9159 9.99992C17.9159 7.90029 17.0818 5.88665 15.5971 4.40199C14.1125 2.91733 12.0988 2.08325 9.99919 2.08325Z" fill="black"/>
</g>
<defs>
<clipPath id="clip0_205_385">
<rect width="20" height="20" fill="white" transform="translate(0.000488281)"/>
</clipPath>
</defs>
</svg>
