<svg width="246" height="46" viewBox="0 0 246 46" fill="none" xmlns="http://www.w3.org/2000/svg">
<g id="trolls-final-logo 1" clip-path="url(#clip0_36_680)">
<rect width="246" height="46" fill="#F5F1E1"/>
<path id="Vector" d="M123.659 30.4112L120.604 27.3529L123.659 24.2945L120.453 21.0852L117.398 24.1435L114.343 21.0852L111.137 24.2945L114.192 27.3529L111.137 30.4112L114.343 33.6206L117.398 30.5622L120.453 33.6206L123.659 30.4112Z" fill="black"/>
<path id="Vector_2" d="M11.2635 17.9293C9.04745 17.9086 6.85859 17.3578 4.94183 16.2711C2.93135 15.131 1.54064 13.7244 0.706213 11.2399C0.373652 10.2509 0.343419 9.31513 0.364582 8.78803C0.367605 8.6755 0.524816 8.64885 0.570165 8.74953C1.28669 10.2894 2.24809 10.8905 2.24809 10.8905C1.05692 9.3477 0.790865 7.84932 0.733422 7.16232C0.724353 7.06163 0.8604 7.02314 0.911796 7.10901C2.04553 9.0042 3.64485 9.84815 3.64485 9.84815C3.016 9.16707 2.6653 8.64885 2.48088 8.32312C2.43251 8.2402 2.53833 8.15433 2.61391 8.21355C3.2367 8.70512 4.7816 9.70897 7.39069 10.1147C18.2714 11.8026 25.6724 6.41905 38.2765 6.70036C40.3293 6.74478 42.3942 7.03794 44.1598 8.12471C47.047 9.90145 47.3252 13.1677 45.9556 15.6225C45.8649 15.7825 45.623 15.7588 45.5656 15.584C45.2361 14.592 44.3533 13.8014 43.3616 13.3839C42.2098 12.8982 40.9249 12.8301 39.6702 12.8212C36.0604 12.7916 32.4476 13.1706 28.9255 13.9465C27.7403 14.2071 26.4494 14.4706 25.6089 15.3294C24.714 16.2444 24.7654 17.3608 24.7322 18.6815V44.1865C24.7322 44.5093 24.4631 44.7729 24.1336 44.7729H17.5277C17.1982 44.7729 16.9291 44.5093 16.9291 44.1865V17.3697C15.0365 17.876 13.3405 17.9501 11.2604 17.9293H11.2635ZM36.6137 21.9566C37.8774 21.0031 39.5977 20.7721 40.6044 20.8106C41.203 20.8313 41.3451 20.7099 41.4479 20.319L42.5877 15.8091C42.6693 15.5041 42.4456 15.1991 42.1251 15.1784C40.6074 15.0836 36.6046 15.0777 33.7778 17.3134C33.6055 17.0054 33.273 16.7804 32.892 16.7804H26.528C26.2438 16.7804 26.0171 17.0262 26.0957 17.2956C26.915 20.0792 26.6369 29.0784 26.6369 29.0784L26.5492 37.7755C26.5492 38.0983 26.8182 38.3618 27.1478 38.3618H33.3062C33.6357 38.3618 33.8716 38.0983 33.8716 37.7755V29.7091C33.9683 25.4597 34.712 23.3928 36.6167 21.9566H36.6137ZM68.083 40.0438V15.4212C68.0921 14.0857 68.8993 13.0848 69.3498 12.682C69.4918 12.5547 69.3981 12.3237 69.2046 12.3237H60.8271C60.4976 12.3237 60.2255 12.5902 60.2255 12.913V40.0438C60.2255 40.3666 60.4976 40.6331 60.8271 40.6331H67.4814C67.8109 40.6331 68.08 40.3695 68.08 40.0438H68.083ZM70.4502 44.6663H77.1045C77.434 44.6663 77.7031 44.3998 77.7031 44.077V18.6845C77.6789 17.2601 78.5133 16.2474 79.0031 15.8417C79.1543 15.7143 79.0666 15.4745 78.867 15.4774H70.4472C70.1177 15.4774 69.8456 15.744 69.8456 16.0667V44.077C69.8456 44.3998 70.1146 44.6663 70.4472 44.6663H70.4502ZM94.2797 30.9202C93.146 28.8089 91.1295 27.426 89.1855 25.9868C88.7018 25.6285 88.212 25.2495 87.8794 24.752C87.4169 24.062 87.2839 23.0878 88.0427 22.463C88.4569 22.1224 89.0192 22.001 89.5453 22.1165C90.4613 22.3179 91.0297 23.0582 91.2625 23.8636C91.3078 24.0235 91.3471 24.1864 91.3623 24.3522C91.3865 24.5773 91.4046 24.7076 91.5225 24.749C91.6313 24.7875 92.0334 24.5092 92.1453 24.4204C92.369 24.2427 92.5686 24.0384 92.7409 23.8133C93.0946 23.3543 93.3425 22.8213 93.4846 22.2646C93.6267 21.7019 93.66 21.1127 93.5723 20.5382C93.53 20.2687 93.4634 20.0052 93.3637 19.7505C92.6502 17.8968 90.8302 16.7212 88.6594 16.5198C86.1985 16.2918 84.1215 16.6412 82.3438 18.0804C78.4529 21.2311 79.5563 25.288 80.1459 26.7568C81.0498 29.0162 83.278 30.2273 84.9862 31.9863C85.3973 32.4068 86.0111 33.0849 86.2348 33.6209C86.4615 34.1598 86.5069 34.7965 86.2348 35.3147C85.7208 36.2949 84.2334 36.5495 83.0241 36.1587C81.3129 35.6079 79.8889 34.2279 79.3931 32.5489C79.3357 32.3505 79.0454 32.3535 78.988 32.5489C78.604 33.8104 78.3924 35.1252 78.4952 36.4341C78.6191 38.0065 79.2238 39.573 80.3605 40.6893C81.6757 41.9804 83.5834 42.546 85.4427 42.6349C88.8348 42.7977 91.4802 41.6458 93.3183 39.2265C95.1142 36.8575 95.6856 33.5232 94.2828 30.9143L94.2797 30.9202ZM55.4517 23.6297C54.705 24.7402 53.7043 25.6108 52.495 26.1912C51.7059 26.5702 51.0377 26.8189 50.2063 26.9729C50.0522 26.9996 50.0189 27.198 50.155 27.272C51.4943 28.0123 52.2138 29.2916 52.2138 30.8433C52.2138 33.1885 50.161 35.0926 47.6275 35.0926C45.094 35.0926 43.0412 33.1915 43.0412 30.8433C43.0412 28.495 45.094 26.5969 47.6275 26.5969C47.6759 26.5969 47.7031 26.5909 47.7696 26.5909C49.2631 26.4991 50.8533 26.3748 52.2229 25.6345C56.3829 23.3928 56.2045 18.8977 55.9234 18.0537C55.8629 17.8701 55.6059 17.8583 55.5273 18.033C55.4396 18.2314 55.3217 18.4564 55.1675 18.6548C54.8259 19.0931 53.6801 20.4434 49.5987 20.1414C48.8338 20.0703 48.1717 20.014 47.437 20.014C40.9642 20.014 35.7188 25.0689 35.7188 31.3022C35.7188 37.5356 40.9642 42.5904 47.437 42.5904C53.9099 42.5904 59.1553 37.5356 59.1553 31.3022C59.1553 28.2996 57.9943 25.596 56.005 23.5734C55.8448 23.4106 55.5727 23.4402 55.4427 23.6297H55.4517ZM2.95251 4.9029H0.391792V4.71042C1.11738 4.67488 1.19599 4.60085 1.19599 3.94938V1.9624C1.19599 1.31389 1.11738 1.27243 0.47342 1.2369V1H3.36973C4.59113 1 5.60393 1.1451 6.26905 1.53598C6.45347 1.64851 6.64092 1.79361 6.79813 1.98313H9.05348C9.59466 1.98313 9.95443 2.02162 10.2235 2.13415C10.5016 2.24668 10.7072 2.44804 10.7072 2.71455C10.7072 3.11136 10.3263 3.34233 9.81536 3.47263C9.91211 3.597 10.169 3.90793 10.3686 4.11521C10.6044 4.35211 10.7556 4.50906 10.8674 4.59493C10.9158 4.63343 10.9672 4.66896 11.0277 4.68377C11.1002 4.7045 11.1758 4.70153 11.2514 4.68673C11.457 4.63935 11.4872 4.5209 11.4872 4.18036V2.69974C11.4872 2.2141 11.4298 2.15784 10.9611 2.13119V1.98313H14.2807C14.2868 2.06012 14.323 2.38882 14.3563 2.72343L14.0479 2.73824C13.9784 2.51911 13.8998 2.37105 13.7879 2.29702C13.676 2.22003 13.4463 2.19337 13.0744 2.19337H12.9565C12.6905 2.19337 12.6753 2.2141 12.6753 2.37401V3.23277H13.026C13.6277 3.23277 13.6488 3.215 13.7184 2.87446H14.0267V3.93458H13.7184C13.6488 3.53777 13.6277 3.52 13.026 3.52H12.6753V4.24254C12.6753 4.47648 12.6905 4.59789 12.8144 4.63935C12.9263 4.67488 13.0865 4.68081 13.3042 4.68081C13.5854 4.68081 13.9814 4.65416 14.1356 4.54459C14.19 4.50906 14.2444 4.44391 14.2958 4.3758C14.3109 4.35211 14.3261 4.32842 14.3412 4.30177L15.7198 1.97721L16.1944 1.91502C16.1944 1.91502 17.2556 3.82797 17.5186 4.28696C17.6124 4.45279 17.7212 4.62158 17.7696 4.6127C17.8119 4.60381 17.821 4.54459 17.8331 4.49721C17.8693 4.35803 17.9117 4.12113 17.9479 3.70952L18.0265 2.80043C18.0779 2.23483 18.0205 2.15784 17.4521 2.12823V1.98017H19.1361L20.3908 3.75986L21.4882 1.98017H22.9545L22.8336 1.74919C22.5675 1.24282 22.3891 1.24282 21.9387 1.20729V1.00296H25.0103V1.21025L24.6959 1.23394C24.3331 1.26355 24.3029 1.29908 24.4208 1.54783L25.355 3.57627L26.6641 1H27.3534L28.868 3.57627C29.2127 2.86261 29.5755 2.01274 29.7146 1.65443C29.8415 1.30797 29.8143 1.25763 29.3911 1.23098L29.0162 1.20729V1.00296H31.3683V1.21025C30.818 1.25763 30.7274 1.2517 30.3948 1.78769C30.3736 1.82322 30.2164 2.11046 29.9776 2.56649C30.3646 2.16969 30.9601 1.8706 31.9941 1.8706C33.2941 1.8706 34.3976 2.451 34.4218 3.31568V2.68494C34.4218 2.20522 34.4097 2.1608 33.9381 2.13415L33.8927 1.98313H36.133C36.6832 1.98313 37.049 2.0157 37.3241 2.12527C37.6053 2.23483 37.8169 2.451 37.8169 2.71455C37.8169 3.10543 37.43 3.33641 36.9069 3.46374C37.0067 3.58811 37.2667 3.92569 37.4693 4.13002C37.5781 4.24254 37.6869 4.35507 37.7958 4.4676C37.8955 4.57124 38.0135 4.67785 38.1616 4.70153C38.2704 4.7193 38.4246 4.69857 38.47 4.58309C38.5032 4.49721 38.5093 4.36988 38.5093 4.19813V2.68198C38.5093 2.20226 38.4518 2.15784 37.9621 2.13119V1.98017H40.1479V2.13119C39.6853 2.15784 39.6309 2.20522 39.6309 2.68198V3.3749C40.1418 3.01067 40.5681 2.68198 40.9763 2.34736C41.073 2.26741 41.1516 2.146 40.9612 2.13415H40.6951V1.98313H42.5726V2.16376C42.1735 2.19041 41.9558 2.19634 41.593 2.42139C41.2151 2.65237 40.8644 2.87742 40.5711 3.09655C41.0065 3.51704 41.466 3.97603 41.9074 4.34619C42.1553 4.55643 42.3247 4.64823 42.4909 4.68969C42.4909 4.68969 42.5333 4.69857 42.5877 4.71042L42.5605 4.62454C42.506 4.45871 42.4395 4.2692 42.376 4.05006L42.6874 3.99084C42.8356 4.24847 43.2528 4.72522 43.9482 4.72522C44.317 4.72522 44.6072 4.58901 44.6072 4.30177C44.6072 4.04118 44.3382 3.88424 43.8968 3.76875L43.7909 3.73914C43.2014 3.57627 42.5453 3.33937 42.5453 2.86557C42.5453 2.36513 43.1288 1.95648 44.2444 1.95648C44.4651 1.95648 44.6919 1.97424 44.8975 2.00978C45.0607 2.03643 45.1756 2.0542 45.2663 2.07196C45.2935 2.24372 45.3449 2.46285 45.4235 2.76489L45.1091 2.7945C44.9519 2.50134 44.704 2.20226 44.1416 2.20226C43.7789 2.20226 43.5219 2.36216 43.5219 2.57241C43.5219 2.78266 43.7909 2.92776 44.2535 3.05213L44.4107 3.09655C45.0637 3.27718 45.6261 3.50816 45.6261 4.02934C45.6261 4.5742 44.9217 4.97397 43.8212 4.97397C43.7516 4.97397 43.6821 4.97397 43.6126 4.96805C43.3677 4.96805 43.0895 4.93251 42.8991 4.90586H41.1456C40.8795 4.62158 40.1509 3.97307 39.64 3.49039H39.6249V4.20109C39.6097 4.68081 39.6823 4.72522 40.1781 4.75188V4.90882H37.7686C37.6174 4.90882 37.4662 4.90882 37.3181 4.89401C37.0248 4.86144 36.7527 4.72819 36.5411 4.52682C36.3174 4.31361 36.1481 4.05303 35.9758 3.79836C35.9123 3.7036 35.8125 3.63845 35.6795 3.63845H35.5888V4.20405C35.5888 4.68377 35.6462 4.72819 36.133 4.75484V4.91178H33.8625V4.75484C34.3644 4.72819 34.4188 4.68377 34.4188 4.20405V3.38379C34.3946 4.31361 33.3546 4.95916 31.9911 4.95916C30.5399 4.95916 29.5966 4.24254 29.5966 3.42525C29.5966 3.38379 29.5966 3.34233 29.6057 3.29791C29.3608 3.78059 29.0827 4.30769 28.7985 4.91178H28.0397L26.5915 2.48061H26.5734L25.2552 4.91178H24.4964L23.0361 2.146C22.6794 2.18449 22.6582 2.27629 22.6764 2.68494L22.7489 4.18924C22.7701 4.68673 22.7852 4.73411 23.3022 4.76668V4.90882H21.0589V4.75188C21.597 4.7193 21.6182 4.68969 21.6122 4.18924L21.591 2.60795H21.5608L20.1459 4.90882H19.8194L18.477 2.76489H18.4619L18.4105 3.76283C18.3893 4.15075 18.3954 4.36396 18.4256 4.50313C18.4528 4.66896 18.61 4.74003 19.0787 4.75188V4.90882H16.0342V4.75188H16.2398C16.4937 4.72522 16.5089 4.64823 16.4182 4.48537L16.1703 4.03526H15.0395L14.834 4.45871C14.7372 4.65119 14.7433 4.72819 15.0607 4.75188H15.2602V4.90882H10.689C10.3867 4.90882 10.0874 4.90586 9.80931 4.7726C9.40117 4.57716 9.14117 4.16851 8.89628 3.81317C8.8328 3.71841 8.73604 3.6503 8.60604 3.6503H8.51535V4.18924C8.51535 4.67488 8.56977 4.72522 9.04745 4.75188V4.90882H6.85859V4.75188C7.35139 4.72522 7.40581 4.67488 7.40581 4.18924V2.69974C7.40581 2.43916 7.38767 2.29998 7.30302 2.22299C7.25767 2.18449 7.18813 2.16969 7.17906 2.16672C7.08836 2.15192 6.99162 2.15488 6.99162 2.15488H6.92813C7.03999 2.33551 7.11557 2.53984 7.11557 2.76489C7.11557 4.26327 5.24114 4.89698 2.94647 4.89698L2.95251 4.9029ZM35.5888 3.42228H35.6886C35.9153 3.42228 36.0846 3.41044 36.2176 3.34825C36.5079 3.20611 36.6137 2.99883 36.6137 2.7797C36.6137 2.35328 36.1844 2.16376 35.9093 2.16376C35.613 2.16376 35.5918 2.20818 35.5918 2.38585V3.42228H35.5888ZM30.936 3.39563C30.936 3.98196 31.2927 4.68673 31.9971 4.68673C32.6139 4.68673 33.0855 4.0471 33.0855 3.41932C33.0855 2.52799 32.6169 2.10158 32.0002 2.10158C31.4469 2.10158 30.936 2.62275 30.936 3.39859V3.39563ZM15.1635 3.7421H16.0463L15.6109 2.89222H15.5898L15.1635 3.7421ZM8.52139 2.40066V3.43413H8.61814C8.83884 3.43413 9.00512 3.42228 9.13815 3.35714C9.42234 3.21204 9.52513 3.00179 9.52513 2.78266C9.52513 2.35032 9.10186 2.17561 8.8328 2.17561C8.54255 2.17561 8.52139 2.22299 8.52139 2.40066ZM2.88298 3.95531C2.88298 4.49129 3.10066 4.62454 3.57833 4.62454C4.4309 4.62454 5.29556 4.02045 5.29556 2.95737C5.29556 1.66628 4.21322 1.30501 3.36973 1.30501C3.13996 1.30501 3.01298 1.32277 2.94345 1.34646C2.89507 1.35831 2.88298 1.49749 2.88298 1.64851V3.95827V3.95531Z" fill="black"/>
</g>
<defs>
<clipPath id="clip0_36_680">
<rect width="246" height="46" fill="white"/>
</clipPath>
</defs>
</svg>
