<svg width="99" height="50" viewBox="0 0 99 50" fill="none" xmlns="http://www.w3.org/2000/svg">
<g id="VOXLogo1 1" clip-path="url(#clip0_205_206)">
<g id="Mask group">
<mask id="mask0_205_206" style="mask-type:luminance" maskUnits="userSpaceOnUse" x="-4" y="-4" width="107" height="58">
<g id="Group">
<path id="Vector" d="M99 0H0V50H99V0Z" fill="white" stroke="#FF8000" stroke-width="6.03812"/>
<path id="Vector_2" d="M25.8653 46.4667L35.5811 44.5565L39.8686 11.4985L43.0368 10.8756L41.5959 4L24.9101 7.28053L26.351 14.1561L30.0473 13.4294L28.5642 31.0125C28.3713 32.9778 28.6896 35.2832 28.6896 35.2832L28.4783 35.3247C28.4783 35.3247 27.8433 33.0816 26.8745 31.3447L18.4305 15.7133L22.1268 14.9866L20.6858 8.11104L4 11.3916L5.44096 18.2672L8.60915 17.6443L25.8653 46.4667Z" stroke="#FF8000" stroke-width="6.03812"/>
<path id="Vector_3" d="M39.7753 30.041C39.897 37.6068 45.6587 43.4234 53.4774 43.2965C61.296 43.1696 66.8677 37.1691 66.746 29.6033C66.6273 22.2176 60.8678 16.5452 53.0492 16.672C45.2305 16.7989 39.6565 22.6553 39.7753 30.041ZM46.4104 29.9333C46.3409 25.61 49.3731 22.3175 53.139 22.2563C56.9048 22.1952 60.0414 25.3877 60.1109 29.711C60.1834 34.2144 57.1534 37.6511 53.3876 37.7122C49.6217 37.7733 46.4828 34.4368 46.4104 29.9333Z" stroke="#FF8000" stroke-width="6.03812"/>
<path id="Vector_4" d="M65.8555 40.5917L78.0163 41.2583L78.3137 35.7808L75.7138 35.6382L78.7385 31.8316C79.3271 31.0609 79.6549 30.4449 79.7388 30.4495L79.8227 30.4541C79.8227 30.4541 80.1635 31.149 80.7093 31.9396L83.5135 36.0658L80.8298 35.9187L80.5324 41.3962L93.2803 42.095L93.5777 36.6175L91.1455 36.4842L84.443 26.6927L92.3122 17.3197L94.7025 17.4507L94.9999 11.9731L82.9229 11.3111L82.6255 16.7886L85.1416 16.9266L82.168 20.567C81.5375 21.3354 81.1677 21.949 81.17 21.9069L81.0861 21.9023C81.0861 21.9023 80.743 21.2496 80.1971 20.459L77.5515 16.5105L80.1514 16.653L80.4488 11.1755L67.7009 10.4766L67.4035 15.9542L69.9196 16.0921L76.4611 25.748L68.5431 35.2451L66.1529 35.1141L65.8555 40.5917Z" stroke="#FF8000" stroke-width="6.03812"/>
</g>
</mask>
<g mask="url(#mask0_205_206)">
<path id="Vector_5" d="M25.8653 46.4667L35.5811 44.5565L39.8686 11.4985L43.0368 10.8756L41.5959 4L24.9101 7.28053L26.351 14.1561L30.0473 13.4294L28.5642 31.0125C28.3713 32.9778 28.6896 35.2832 28.6896 35.2832L28.4783 35.3247C28.4783 35.3247 27.8433 33.0816 26.8745 31.3447L18.4305 15.7133L22.1268 14.9866L20.6858 8.11104L4 11.3916L5.44096 18.2672L8.60915 17.6443L25.8653 46.4667Z" stroke="#E9407D" stroke-width="6.03812"/>
</g>
</g>
<g id="Mask group_2">
<mask id="mask1_205_206" style="mask-type:luminance" maskUnits="userSpaceOnUse" x="-4" y="-4" width="107" height="58">
<g id="Group_2">
<path id="Vector_6" d="M99 0H0V50H99V0Z" fill="white" stroke="#FF8000" stroke-width="6.03812"/>
<path id="Vector_7" d="M25.8653 46.4667L35.5811 44.5565L39.8686 11.4985L43.0368 10.8756L41.5959 4L24.9101 7.28053L26.351 14.1561L30.0473 13.4294L28.5642 31.0125C28.3713 32.9778 28.6896 35.2832 28.6896 35.2832L28.4783 35.3247C28.4783 35.3247 27.8433 33.0816 26.8745 31.3447L18.4305 15.7133L22.1268 14.9866L20.6858 8.11104L4 11.3916L5.44096 18.2672L8.60915 17.6443L25.8653 46.4667Z" stroke="#FF8000" stroke-width="6.03812"/>
<path id="Vector_8" d="M39.7753 30.041C39.897 37.6068 45.6587 43.4234 53.4774 43.2965C61.296 43.1696 66.8677 37.1691 66.746 29.6033C66.6273 22.2176 60.8678 16.5452 53.0492 16.672C45.2305 16.7989 39.6565 22.6553 39.7753 30.041ZM46.4104 29.9333C46.3409 25.61 49.3731 22.3175 53.139 22.2563C56.9048 22.1952 60.0414 25.3877 60.1109 29.711C60.1834 34.2144 57.1534 37.6511 53.3876 37.7122C49.6217 37.7733 46.4828 34.4368 46.4104 29.9333Z" stroke="#FF8000" stroke-width="6.03812"/>
<path id="Vector_9" d="M65.8555 40.5917L78.0163 41.2583L78.3137 35.7808L75.7138 35.6382L78.7385 31.8316C79.3271 31.0609 79.6549 30.4449 79.7388 30.4495L79.8227 30.4541C79.8227 30.4541 80.1635 31.149 80.7093 31.9396L83.5135 36.0658L80.8298 35.9187L80.5324 41.3962L93.2803 42.095L93.5777 36.6175L91.1455 36.4842L84.443 26.6927L92.3122 17.3197L94.7025 17.4507L94.9999 11.9731L82.9229 11.3111L82.6255 16.7886L85.1416 16.9266L82.168 20.567C81.5375 21.3354 81.1677 21.949 81.17 21.9069L81.0861 21.9023C81.0861 21.9023 80.743 21.2496 80.1971 20.459L77.5515 16.5105L80.1514 16.653L80.4488 11.1755L67.7009 10.4766L67.4035 15.9542L69.9196 16.0921L76.4611 25.748L68.5431 35.2451L66.1529 35.1141L65.8555 40.5917Z" stroke="#FF8000" stroke-width="6.03812"/>
</g>
</mask>
<g mask="url(#mask1_205_206)">
<path id="Vector_10" d="M39.7753 30.041C39.897 37.6068 45.6587 43.4234 53.4774 43.2965C61.296 43.1696 66.8677 37.1691 66.746 29.6033C66.6273 22.2176 60.8678 16.5452 53.0492 16.672C45.2305 16.7989 39.6565 22.6553 39.7753 30.041ZM46.4104 29.9333C46.3409 25.61 49.3731 22.3175 53.139 22.2563C56.9048 22.1952 60.0414 25.3877 60.1109 29.711C60.1834 34.2144 57.1534 37.6511 53.3876 37.7122C49.6217 37.7733 46.4828 34.4368 46.4104 29.9333Z" stroke="#E9407D" stroke-width="6.03812"/>
</g>
</g>
<g id="Mask group_3">
<path id="Vector_11" d="M99 0H0V50H99V0Z" fill="#F5F1E1"/>
<path id="Vector_12" d="M25.8653 46.4667L35.5811 44.5565L39.8686 11.4985L43.0368 10.8756L41.5959 4L24.9101 7.28053L26.351 14.1561L30.0473 13.4294L28.5642 31.0125C28.3713 32.9778 28.6896 35.2832 28.6896 35.2832L28.4783 35.3247C28.4783 35.3247 27.8433 33.0816 26.8745 31.3447L18.4305 15.7133L22.1268 14.9866L20.6858 8.11104L4 11.3916L5.44096 18.2672L8.60915 17.6443L25.8653 46.4667Z" stroke="#E9407D" stroke-width="2"/>
<path id="Vector_13" d="M39.7753 30.041C39.897 37.6068 45.6587 43.4234 53.4774 43.2965C61.296 43.1696 66.8677 37.1691 66.746 29.6033C66.6273 22.2176 60.8678 16.5452 53.0492 16.672C45.2305 16.7989 39.6565 22.6553 39.7753 30.041ZM46.4104 29.9333C46.3409 25.61 49.3731 22.3175 53.139 22.2563C56.9048 22.1952 60.0414 25.3877 60.1109 29.711C60.1834 34.2144 57.1534 37.6511 53.3876 37.7122C49.6217 37.7733 46.4828 34.4368 46.4104 29.9333Z" stroke="#E9407D" stroke-width="2"/>
<path id="Vector_14" d="M65.8555 40.5917L78.0163 41.2583L78.3137 35.7808L75.7138 35.6382L78.7385 31.8316C79.3271 31.0609 79.6549 30.4449 79.7388 30.4495L79.8227 30.4541C79.8227 30.4541 80.1635 31.149 80.7093 31.9396L83.5135 36.0658L80.8298 35.9187L80.5324 41.3962L93.2803 42.095L93.5777 36.6175L91.1455 36.4842L84.443 26.6927L92.3122 17.3197L94.7025 17.4507L94.9999 11.9731L82.9229 11.3111L82.6255 16.7886L85.1416 16.9266L82.168 20.567C81.5375 21.3354 81.1677 21.949 81.17 21.9069L81.0861 21.9023C81.0861 21.9023 80.743 21.2496 80.1971 20.459L77.5515 16.5105L80.1514 16.653L80.4488 11.1755L67.7009 10.4766L67.4035 15.9542L69.9196 16.0921L76.4611 25.748L68.5431 35.2451L66.1529 35.1141L65.8555 40.5917Z" stroke="#E9407D" stroke-width="2"/>
<path id="Vector_15" d="M65.8555 40.5917L78.0163 41.2583L78.3137 35.7808L75.7138 35.6382L78.7385 31.8316C79.3271 31.0609 79.6549 30.4449 79.7388 30.4495L79.8227 30.4541C79.8227 30.4541 80.1635 31.149 80.7093 31.9396L83.5135 36.0658L80.8298 35.9187L80.5324 41.3962L93.2803 42.095L93.5777 36.6175L91.1455 36.4842L84.443 26.6927L92.3122 17.3197L94.7025 17.4507L94.9999 11.9731L82.9229 11.3111L82.6255 16.7886L85.1416 16.9266L82.168 20.567C81.5375 21.3354 81.1677 21.949 81.17 21.9069L81.0861 21.9023C81.0861 21.9023 80.743 21.2496 80.1971 20.459L77.5515 16.5105L80.1514 16.653L80.4488 11.1755L67.7009 10.4766L67.4035 15.9542L69.9196 16.0921L76.4611 25.748L68.5431 35.2451L66.1529 35.1141L65.8555 40.5917Z" stroke="#E9407D" stroke-width="2"/>
</g>
</g>
<defs>
<clipPath id="clip0_205_206">
<rect width="99" height="50" fill="white"/>
</clipPath>
</defs>
</svg>
