<svg width="91" height="45" viewBox="0 0 91 45" fill="none" xmlns="http://www.w3.org/2000/svg">
<g id="VOXLogo1 1" clip-path="url(#clip0_36_690)">
<rect width="91" height="45" fill="#F5F1E1"/>
<g id="Mask group">
<mask id="mask0_36_690" style="mask-type:luminance" maskUnits="userSpaceOnUse" x="-4" y="-4" width="99" height="53">
<g id="Group">
<path id="Vector" d="M91 0H0V45H91V0Z" fill="white" stroke="#FF8000" stroke-width="6.03812"/>
<path id="Vector_2" d="M23.7742 41.8201L32.7049 40.1009L36.6459 10.3487L39.5581 9.78814L38.2336 3.6001L22.8962 6.55257L24.2206 12.7406L27.6183 12.0866L26.255 27.9113C26.0777 29.6801 26.3703 31.755 26.3703 31.755L26.176 31.7923C26.176 31.7923 25.5924 29.7735 24.7018 28.2103L16.9402 14.1421L20.3378 13.488L19.0132 7.30003L3.67578 10.2525L5.0003 16.4406L7.91247 15.88L23.7742 41.8201Z" stroke="#FF8000" stroke-width="6.03812"/>
<path id="Vector_3" d="M36.5603 27.0371C36.6722 33.8464 41.9683 39.0813 49.1552 38.9671C56.342 38.8529 61.4634 33.4524 61.3516 26.6432C61.2424 19.9961 55.9484 14.8909 48.7616 15.0051C41.5747 15.1193 36.4511 20.39 36.5603 27.0371ZM42.6592 26.9402C42.5954 23.0492 45.3825 20.086 48.8441 20.0309C52.3056 19.9759 55.1887 22.8492 55.2526 26.7401C55.3193 30.7932 52.5341 33.8862 49.0726 33.9412C45.611 33.9962 42.7258 30.9934 42.6592 26.9402Z" stroke="#FF8000" stroke-width="6.03812"/>
<path id="Vector_4" d="M60.5352 36.5325L71.7133 37.1325L71.9866 32.2027L69.5968 32.0744L72.3771 28.6485C72.9181 27.9548 73.2195 27.4004 73.2966 27.4046L73.3737 27.4087C73.3737 27.4087 73.687 28.0341 74.1886 28.7457L76.7663 32.4592L74.2994 32.3268L74.026 37.2566L85.7438 37.8855L86.0172 32.9558L83.7815 32.8358L77.6206 24.0234L84.8539 15.5877L87.0511 15.7056L87.3245 10.7758L76.2234 10.18L75.95 15.1098L78.2628 15.234L75.5295 18.5103C74.9499 19.2019 74.61 19.7541 74.6121 19.7162L74.535 19.7121C74.535 19.7121 74.2196 19.1247 73.7178 18.4131L71.286 14.8595L73.6758 14.9877L73.9492 10.058L62.2314 9.42896L61.9581 14.3588L64.2708 14.4829L70.2837 23.1732L63.0056 31.7206L60.8085 31.6027L60.5352 36.5325Z" stroke="#FF8000" stroke-width="6.03812"/>
</g>
</mask>
<g mask="url(#mask0_36_690)">
<path id="Vector_5" d="M23.7742 41.8201L32.7049 40.1009L36.6459 10.3487L39.5581 9.78814L38.2336 3.6001L22.8962 6.55257L24.2206 12.7406L27.6183 12.0866L26.255 27.9113C26.0777 29.6801 26.3703 31.755 26.3703 31.755L26.176 31.7923C26.176 31.7923 25.5924 29.7735 24.7018 28.2103L16.9402 14.1421L20.3378 13.488L19.0132 7.30003L3.67578 10.2525L5.0003 16.4406L7.91247 15.88L23.7742 41.8201Z" stroke="#E9407D" stroke-width="6.03812"/>
</g>
</g>
<g id="Mask group_2">
<mask id="mask1_36_690" style="mask-type:luminance" maskUnits="userSpaceOnUse" x="-4" y="-4" width="99" height="53">
<g id="Group_2">
<path id="Vector_6" d="M91 0H0V45H91V0Z" fill="white" stroke="#FF8000" stroke-width="6.03812"/>
<path id="Vector_7" d="M23.7742 41.8201L32.7049 40.1009L36.6459 10.3487L39.5581 9.78814L38.2336 3.6001L22.8962 6.55257L24.2206 12.7406L27.6183 12.0866L26.255 27.9113C26.0777 29.6801 26.3703 31.755 26.3703 31.755L26.176 31.7923C26.176 31.7923 25.5924 29.7735 24.7018 28.2103L16.9402 14.1421L20.3378 13.488L19.0132 7.30003L3.67578 10.2525L5.0003 16.4406L7.91247 15.88L23.7742 41.8201Z" stroke="#FF8000" stroke-width="6.03812"/>
<path id="Vector_8" d="M36.5603 27.0371C36.6722 33.8464 41.9683 39.0813 49.1552 38.9671C56.342 38.8529 61.4634 33.4524 61.3516 26.6432C61.2424 19.9961 55.9484 14.8909 48.7616 15.0051C41.5747 15.1193 36.4511 20.39 36.5603 27.0371ZM42.6592 26.9402C42.5954 23.0492 45.3825 20.086 48.8441 20.0309C52.3056 19.9759 55.1887 22.8492 55.2526 26.7401C55.3193 30.7932 52.5341 33.8862 49.0726 33.9412C45.611 33.9962 42.7258 30.9934 42.6592 26.9402Z" stroke="#FF8000" stroke-width="6.03812"/>
<path id="Vector_9" d="M60.5352 36.5325L71.7133 37.1325L71.9866 32.2027L69.5968 32.0744L72.3771 28.6485C72.9181 27.9548 73.2195 27.4004 73.2966 27.4046L73.3737 27.4087C73.3737 27.4087 73.687 28.0341 74.1886 28.7457L76.7663 32.4592L74.2994 32.3268L74.026 37.2566L85.7438 37.8855L86.0172 32.9558L83.7815 32.8358L77.6206 24.0234L84.8539 15.5877L87.0511 15.7056L87.3245 10.7758L76.2234 10.18L75.95 15.1098L78.2628 15.234L75.5295 18.5103C74.9499 19.2019 74.61 19.7541 74.6121 19.7162L74.535 19.7121C74.535 19.7121 74.2196 19.1247 73.7178 18.4131L71.286 14.8595L73.6758 14.9877L73.9492 10.058L62.2314 9.42896L61.9581 14.3588L64.2708 14.4829L70.2837 23.1732L63.0056 31.7206L60.8085 31.6027L60.5352 36.5325Z" stroke="#FF8000" stroke-width="6.03812"/>
</g>
</mask>
<g mask="url(#mask1_36_690)">
<path id="Vector_10" d="M36.5603 27.0371C36.6722 33.8464 41.9683 39.0813 49.1552 38.9671C56.342 38.8529 61.4634 33.4524 61.3516 26.6432C61.2424 19.9961 55.9484 14.8909 48.7616 15.0051C41.5747 15.1193 36.4511 20.39 36.5603 27.0371ZM42.6592 26.9402C42.5954 23.0492 45.3825 20.086 48.8441 20.0309C52.3056 19.9759 55.1887 22.8492 55.2526 26.7401C55.3193 30.7932 52.5341 33.8862 49.0726 33.9412C45.611 33.9962 42.7258 30.9934 42.6592 26.9402Z" stroke="#E9407D" stroke-width="6.03812"/>
</g>
</g>
<g id="Mask group_3">
<path id="Vector_11" d="M91 0H0V45H91V0Z" fill="#F5F1E1"/>
<path id="Vector_12" d="M23.7742 41.8201L32.7049 40.1009L36.6459 10.3487L39.5581 9.78814L38.2336 3.6001L22.8962 6.55257L24.2206 12.7406L27.6183 12.0866L26.255 27.9113C26.0777 29.6801 26.3703 31.755 26.3703 31.755L26.176 31.7923C26.176 31.7923 25.5924 29.7735 24.7018 28.2103L16.9402 14.1421L20.3378 13.488L19.0132 7.30003L3.67578 10.2525L5.0003 16.4406L7.91247 15.88L23.7742 41.8201Z" stroke="#E9407D" stroke-width="2"/>
<path id="Vector_13" d="M36.5603 27.0371C36.6722 33.8464 41.9683 39.0813 49.1552 38.9671C56.342 38.8529 61.4634 33.4524 61.3516 26.6432C61.2424 19.9961 55.9484 14.8909 48.7616 15.0051C41.5747 15.1193 36.4511 20.39 36.5603 27.0371ZM42.6592 26.9402C42.5954 23.0492 45.3825 20.086 48.8441 20.0309C52.3056 19.9759 55.1887 22.8492 55.2526 26.7401C55.3193 30.7932 52.5341 33.8862 49.0726 33.9412C45.611 33.9962 42.7258 30.9934 42.6592 26.9402Z" stroke="#E9407D" stroke-width="2"/>
<path id="Vector_14" d="M60.5352 36.5325L71.7133 37.1325L71.9866 32.2027L69.5968 32.0744L72.3771 28.6485C72.9181 27.9548 73.2195 27.4004 73.2966 27.4046L73.3737 27.4087C73.3737 27.4087 73.687 28.0341 74.1886 28.7457L76.7663 32.4592L74.2994 32.3268L74.026 37.2566L85.7438 37.8855L86.0172 32.9558L83.7815 32.8358L77.6206 24.0234L84.8539 15.5877L87.0511 15.7056L87.3245 10.7758L76.2234 10.18L75.95 15.1098L78.2628 15.234L75.5295 18.5103C74.9499 19.2019 74.61 19.7541 74.6121 19.7162L74.535 19.7121C74.535 19.7121 74.2196 19.1247 73.7178 18.4131L71.286 14.8595L73.6758 14.9877L73.9492 10.058L62.2314 9.42896L61.9581 14.3588L64.2708 14.4829L70.2837 23.1732L63.0056 31.7206L60.8085 31.6027L60.5352 36.5325Z" stroke="#E9407D" stroke-width="2"/>
<path id="Vector_15" d="M60.5352 36.5325L71.7133 37.1325L71.9866 32.2027L69.5968 32.0744L72.3771 28.6485C72.9181 27.9548 73.2195 27.4004 73.2966 27.4046L73.3737 27.4087C73.3737 27.4087 73.687 28.0341 74.1886 28.7457L76.7663 32.4592L74.2994 32.3268L74.026 37.2566L85.7438 37.8855L86.0172 32.9558L83.7815 32.8358L77.6206 24.0234L84.8539 15.5877L87.0511 15.7056L87.3245 10.7758L76.2234 10.18L75.95 15.1098L78.2628 15.234L75.5295 18.5103C74.9499 19.2019 74.61 19.7541 74.6121 19.7162L74.535 19.7121C74.535 19.7121 74.2196 19.1247 73.7178 18.4131L71.286 14.8595L73.6758 14.9877L73.9492 10.058L62.2314 9.42896L61.9581 14.3588L64.2708 14.4829L70.2837 23.1732L63.0056 31.7206L60.8085 31.6027L60.5352 36.5325Z" stroke="#E9407D" stroke-width="2"/>
</g>
</g>
<defs>
<clipPath id="clip0_36_690">
<rect width="91" height="45" fill="white"/>
</clipPath>
</defs>
</svg>
