<svg width="38" height="38" viewBox="0 0 38 38" fill="none" xmlns="http://www.w3.org/2000/svg">
<g id="ic:baseline-discord">
<path id="Vector" d="M30.5118 8.4394C28.406 7.45774 26.126 6.74524 23.751 6.33357C23.7302 6.3329 23.7095 6.33681 23.6903 6.34502C23.6712 6.35322 23.654 6.36553 23.6402 6.38107C23.3552 6.90357 23.0227 7.5844 22.801 8.1069C20.2819 7.7269 17.7201 7.7269 15.201 8.1069C14.9793 7.56857 14.6468 6.90357 14.346 6.38107C14.3302 6.3494 14.2827 6.33357 14.2352 6.33357C11.8602 6.74524 9.596 7.45774 7.47433 8.4394C7.4585 8.4394 7.44267 8.45524 7.42683 8.47107C3.12017 14.9152 1.93267 21.1852 2.5185 27.3919C2.5185 27.4236 2.53433 27.4552 2.566 27.4711C5.416 29.5611 8.15517 30.8277 10.8627 31.6669C10.9102 31.6827 10.9577 31.6669 10.9735 31.6352C11.6068 30.7644 12.1768 29.8461 12.6677 28.8802C12.6993 28.8169 12.6677 28.7536 12.6043 28.7377C11.7018 28.3894 10.8468 27.9777 10.0077 27.5027C9.94433 27.4711 9.94433 27.3761 9.99183 27.3286C10.166 27.2019 10.3402 27.0594 10.5143 26.9327C10.546 26.9011 10.5935 26.9011 10.6252 26.9169C16.0718 29.4027 21.946 29.4027 27.3293 26.9169C27.361 26.9011 27.4085 26.9011 27.4402 26.9327C27.6143 27.0752 27.7885 27.2019 27.9627 27.3444C28.026 27.3919 28.026 27.4869 27.9468 27.5186C27.1235 28.0094 26.2527 28.4052 25.3502 28.7536C25.2868 28.7694 25.271 28.8486 25.2868 28.8961C25.7935 29.8619 26.3635 30.7802 26.981 31.6511C27.0285 31.6669 27.076 31.6827 27.1235 31.6669C29.8468 30.8277 32.586 29.5611 35.436 27.4711C35.4677 27.4552 35.4835 27.4236 35.4835 27.3919C36.1802 20.2194 34.3277 13.9969 30.5752 8.47107C30.5593 8.45524 30.5435 8.4394 30.5118 8.4394ZM13.491 23.6077C11.8602 23.6077 10.4985 22.1036 10.4985 20.2511C10.4985 18.3986 11.8285 16.8944 13.491 16.8944C15.1693 16.8944 16.4993 18.4144 16.4835 20.2511C16.4835 22.1036 15.1535 23.6077 13.491 23.6077ZM24.5268 23.6077C22.896 23.6077 21.5343 22.1036 21.5343 20.2511C21.5343 18.3986 22.8643 16.8944 24.5268 16.8944C26.2052 16.8944 27.5352 18.4144 27.5193 20.2511C27.5193 22.1036 26.2052 23.6077 24.5268 23.6077Z" fill="black"/>
</g>
</svg>
