<svg width="38" height="38" viewBox="0 0 38 38" fill="none" xmlns="http://www.w3.org/2000/svg">
<g id="ri:medium-fill">
<path id="Vector" d="M1.58333 5H26.9167C27.3366 5 27.7393 5.16681 28.0363 5.46375C28.3332 5.76068 28.5 6.16341 28.5 6.58333V31.9167C28.5 32.3366 28.3332 32.7393 28.0363 33.0363C27.7393 33.3332 27.3366 33.5 26.9167 33.5H1.58333C1.16341 33.5 0.76068 33.3332 0.463748 33.0363C0.166815 32.7393 0 32.3366 0 31.9167V6.58333C0 6.16341 0.166815 5.76068 0.463748 5.46375C0.76068 5.16681 1.16341 5 1.58333 5ZM22.6417 25.4883C22.4833 25.4092 22.4042 25.1717 22.4042 25.0118V12.9262C22.4042 12.7678 22.4833 12.5303 22.6417 12.3704L24.1538 10.6208V10.5417H18.7467L14.6933 20.7985L10.0795 10.5417H4.51408V10.6208L5.94542 12.6095C6.26367 12.9262 6.34283 13.4043 6.34283 13.8018V22.5465C6.422 23.0247 6.34283 23.5804 6.10533 24.057L3.95675 26.9988V27.078H9.68208V26.9988L7.53508 24.1378C7.29758 23.6596 7.21683 23.183 7.29758 22.6273V14.6742C7.37675 14.8325 7.45592 14.8325 7.53508 15.1508L12.9406 27.2363H13.0197L18.2701 14.12C18.1909 14.595 18.1909 15.1523 18.1909 15.5513V24.9326C18.1909 25.1701 18.1118 25.3284 17.9534 25.4883L16.3622 26.9988V27.078H24.1538V26.9988L22.6417 25.4883Z" fill="black"/>
</g>
</svg>
