<svg width="38" height="38" viewBox="0 0 38 38" fill="none" xmlns="http://www.w3.org/2000/svg">
<g id="mdi:instagram">
<path id="Vector" d="M12.3513 3.1665H25.6513C30.718 3.1665 34.8346 7.28317 34.8346 12.3498V25.6498C34.8346 28.0854 33.8671 30.4212 32.1449 32.1434C30.4227 33.8656 28.0869 34.8332 25.6513 34.8332H12.3513C7.28464 34.8332 3.16797 30.7165 3.16797 25.6498V12.3498C3.16797 9.91427 4.1355 7.57845 5.85771 5.85624C7.57991 4.13403 9.91573 3.1665 12.3513 3.1665ZM12.0346 6.33317C10.5229 6.33317 9.07308 6.9337 8.00413 8.00266C6.93517 9.07162 6.33464 10.5214 6.33464 12.0332V25.9665C6.33464 29.1173 8.8838 31.6665 12.0346 31.6665H25.968C27.4797 31.6665 28.9295 31.066 29.9985 29.997C31.0674 28.9281 31.668 27.4782 31.668 25.9665V12.0332C31.668 8.88234 29.1188 6.33317 25.968 6.33317H12.0346ZM27.3138 8.70817C27.8387 8.70817 28.3421 8.91669 28.7133 9.28786C29.0845 9.65902 29.293 10.1624 29.293 10.6873C29.293 11.2122 29.0845 11.7157 28.7133 12.0868C28.3421 12.458 27.8387 12.6665 27.3138 12.6665C26.7889 12.6665 26.2855 12.458 25.9143 12.0868C25.5432 11.7157 25.3346 11.2122 25.3346 10.6873C25.3346 10.1624 25.5432 9.65902 25.9143 9.28786C26.2855 8.91669 26.7889 8.70817 27.3138 8.70817ZM19.0013 11.0832C21.1009 11.0832 23.1146 11.9172 24.5992 13.4019C26.0839 14.8866 26.918 16.9002 26.918 18.9998C26.918 21.0995 26.0839 23.1131 24.5992 24.5978C23.1146 26.0824 21.1009 26.9165 19.0013 26.9165C16.9017 26.9165 14.888 26.0824 13.4034 24.5978C11.9187 23.1131 11.0846 21.0995 11.0846 18.9998C11.0846 16.9002 11.9187 14.8866 13.4034 13.4019C14.888 11.9172 16.9017 11.0832 19.0013 11.0832ZM19.0013 14.2498C17.7415 14.2498 16.5333 14.7503 15.6425 15.6411C14.7517 16.5319 14.2513 17.7401 14.2513 18.9998C14.2513 20.2596 14.7517 21.4678 15.6425 22.3586C16.5333 23.2494 17.7415 23.7498 19.0013 23.7498C20.2611 23.7498 21.4693 23.2494 22.3601 22.3586C23.2509 21.4678 23.7513 20.2596 23.7513 18.9998C23.7513 17.7401 23.2509 16.5319 22.3601 15.6411C21.4693 14.7503 20.2611 14.2498 19.0013 14.2498Z" fill="black"/>
</g>
</svg>
