<svg width="38" height="38" viewBox="0 0 38 38" fill="none" xmlns="http://www.w3.org/2000/svg">
<g id="mdi:youtube">
<path id="Vector" d="M15.8346 23.7498L24.0521 18.9998L15.8346 14.2498V23.7498ZM34.138 11.3523C34.3438 12.0965 34.4863 13.094 34.5813 14.3607C34.6921 15.6273 34.7396 16.7198 34.7396 17.6698L34.8346 18.9998C34.8346 22.4673 34.5813 25.0165 34.138 26.6473C33.7421 28.0723 32.8238 28.9907 31.3988 29.3865C30.6546 29.5923 29.293 29.7348 27.203 29.8298C25.1446 29.9407 23.2605 29.9882 21.5188 29.9882L19.0013 30.0832C12.3671 30.0832 8.23464 29.8298 6.6038 29.3865C5.1788 28.9907 4.26047 28.0723 3.86464 26.6473C3.6588 25.9032 3.5163 24.9057 3.4213 23.639C3.31047 22.3723 3.26297 21.2798 3.26297 20.3298L3.16797 18.9998C3.16797 15.5323 3.4213 12.9832 3.86464 11.3523C4.26047 9.92734 5.1788 9.009 6.6038 8.61317C7.34797 8.40734 8.70964 8.26484 10.7996 8.16984C12.858 8.059 14.7421 8.0115 16.4838 8.0115L19.0013 7.9165C25.6355 7.9165 29.768 8.16984 31.3988 8.61317C32.8238 9.009 33.7421 9.92734 34.138 11.3523Z" fill="black"/>
</g>
</svg>
