<svg width="105" height="23" viewBox="0 0 105 23" fill="none" xmlns="http://www.w3.org/2000/svg">
<g id="upland 1" clip-path="url(#clip0_36_758)">
<path id="Vector" d="M9.17634 0.459473H14.0147V16.3117C14.0147 17.2996 13.8659 18.1897 13.5684 18.9818C13.2803 19.7554 12.8573 20.4171 12.2996 20.9669C11.7512 21.5074 11.0867 21.922 10.3057 22.2111C9.51557 22.4907 8.62794 22.6304 7.6426 22.6304H6.4713C5.49542 22.6304 4.61228 22.4907 3.82216 22.2111C3.04136 21.922 2.37207 21.5074 1.81434 20.9669C1.26592 20.4171 0.847609 19.7554 0.559455 18.9818C0.262012 18.1897 0.113281 17.2996 0.113281 16.3117V0.459473H4.95149V16.3259C4.95149 17.0247 5.10028 17.5093 5.39771 17.7796C5.68585 18.0312 6.17387 18.1571 6.86179 18.1571H7.26621C7.95396 18.1571 8.43734 18.0312 8.71618 17.7796C9.0229 17.5093 9.17634 17.0247 9.17634 16.3259V0.459473ZM26.3388 11.3911C26.7477 11.3911 27.073 11.3539 27.3147 11.2794C27.5657 11.2049 27.7609 11.0836 27.9004 10.9158C28.0305 10.7482 28.1236 10.5291 28.1793 10.2589C28.2257 10.0166 28.249 9.69043 28.249 9.28031V7.0436C28.249 6.63365 28.2257 6.30735 28.1793 6.06503C28.1236 5.79478 28.0305 5.57575 27.9004 5.40811C27.7609 5.2403 27.5657 5.11923 27.3147 5.04456C27.073 4.97005 26.7477 4.9328 26.3388 4.9328H24.0382V11.3911H26.3388ZM19.1999 22.3228V0.459473H26.7291C28.7927 0.459473 30.3729 1.04192 31.4699 2.20686C32.5481 3.35315 33.0873 4.96539 33.0873 7.0436V9.28031C33.0873 11.3585 32.5481 12.9707 31.4699 14.1171C30.3729 15.2819 28.7927 15.8645 26.7291 15.8645H24.0382V22.3228H19.1999ZM42.0929 17.8494H49.2736V22.3228H37.2547V0.459473H42.0929V17.8494ZM59.2692 14.2009H61.7511L60.5101 7.63085L59.2692 14.2009ZM62.8665 18.6743H58.1538L57.2474 22.3228H52.2698L58.2234 0.459473H62.8107L68.7507 22.3228H63.7868L62.8665 18.6743ZM81.0886 10.9858V0.459473H85.9269V22.3228H81.2699L76.8639 11.7966V22.3228H72.0256V0.459473H76.6826L81.0886 10.9858ZM91.1121 0.459473H98.0558C100.25 0.459473 101.932 0.953398 103.103 1.94126C104.368 3.00367 105 4.61593 105 6.77801V16.0042C105 18.1664 104.368 19.7786 103.103 20.841C101.932 21.8289 100.25 22.3228 98.0558 22.3228H91.1121V0.459473ZM95.9504 4.9328V17.8494H98.0558C98.4463 17.8494 98.7576 17.8262 98.99 17.7796C99.2689 17.733 99.492 17.6492 99.6592 17.528C99.8266 17.3883 99.952 17.2018 100.036 16.9688C100.12 16.7265 100.161 16.4097 100.161 16.0182V6.76404C100.161 6.37271 100.12 6.05572 100.036 5.81341C99.952 5.58058 99.8266 5.39414 99.6592 5.25427C99.492 5.1332 99.2689 5.04921 98.99 5.00265C98.7576 4.95608 98.4463 4.9328 98.0558 4.9328H95.9504Z" fill="#A2A2A2"/>
</g>
<defs>
<clipPath id="clip0_36_758">
<rect width="105" height="23" fill="white"/>
</clipPath>
</defs>
</svg>
