<svg width="170" height="27" viewBox="0 0 170 27" fill="none" xmlns="http://www.w3.org/2000/svg">
<g id="dream 1" clip-path="url(#clip0_36_722)">
<path id="Vector" d="M166.131 13.6958L165.679 13.5473C164.209 13.1317 163.39 12.7457 163.39 12.0035C163.39 11.291 164.153 10.7269 165.312 10.7269C167.064 10.7269 167.855 11.766 168.307 12.7457L169.297 12.6567C169.071 11.677 168.901 10.9644 168.844 10.4004C168.534 10.3113 168.223 10.3113 167.686 10.1628C167.064 10.0738 166.301 10.0144 165.623 10.0144C162.09 10.0144 160.338 11.3801 160.338 12.9832C160.338 14.527 162.401 15.3286 164.266 15.8036L164.577 15.8927C165.962 16.3083 166.81 16.7833 166.81 17.674C166.81 18.6537 165.877 19.1287 164.746 19.1287C162.599 19.1287 161.214 17.5256 160.761 16.724L159.772 16.8724C159.998 17.7631 160.225 18.4756 160.451 19.0397C159.688 18.9506 159.151 18.7131 158.077 17.8224C156.692 16.6052 155.25 15.2396 153.866 13.8739C154.798 13.1614 155.872 12.4192 157.087 11.7066C158.246 10.9941 158.924 10.816 160.168 10.7269V10.2519H154.261V10.7269L155.109 10.816C155.731 10.9051 155.505 11.2316 155.194 11.5285C153.894 12.6567 152.594 13.6958 150.983 14.913V12.5082C150.983 10.9644 151.124 10.7269 152.594 10.6676V10.1925H145.754V10.6676C147.281 10.7566 147.45 10.9941 147.45 12.5082V17.2584C147.45 18.149 147.365 18.7131 147.054 18.8615C146.517 19.099 146.207 18.9506 145.839 18.624C145.443 18.2975 144.991 17.7334 144.228 16.9318C143.606 16.2786 142.759 15.2396 142.476 14.8239C144.087 14.4083 145.302 13.6067 145.302 12.4192C145.302 11.5285 144.624 10.8754 143.776 10.5785C142.928 10.2519 141.769 10.1035 140.017 10.1035H132.952L133.093 10.5785C134.563 10.6676 134.619 10.9051 134.619 12.4192V17.1693C134.619 18.7131 134.478 18.9506 132.867 19.01V19.485H139.876V19.01C138.35 18.9209 138.18 18.6834 138.18 17.1693V15.388H138.491C138.887 15.388 139.254 15.6255 139.424 15.863C139.961 16.6646 140.582 17.5552 141.261 18.2084C142.193 19.01 142.872 19.5741 145.952 19.485C146.178 19.485 147.026 19.3959 147.252 19.3959H152.622V18.9209C151.096 18.8318 150.87 18.5943 150.87 17.0802V14.7349H150.955C152.566 16.338 154.883 18.4459 155.703 19.3365H160.761V19.01C161.072 19.099 161.44 19.1584 161.92 19.2475C162.542 19.3959 163.446 19.485 164.294 19.485C167.742 19.485 169.975 18.2084 169.975 16.4271C169.975 14.9724 168.194 14.2598 166.131 13.6958ZM140.187 14.5864C139.791 14.8239 139.254 14.8239 138.491 14.8239H138.18V11.5285C138.18 10.9644 138.265 10.816 139.169 10.816C140.017 10.816 141.402 11.3801 141.402 12.7457C141.487 13.4583 141.091 14.0817 140.187 14.5864Z" fill="#A2A2A2"/>
<path id="Vector_2" d="M127.275 9.9853C124.053 9.9853 121.82 10.965 120.662 12.2416C121.425 10.7869 121.877 9.83685 121.962 9.65872C123.036 7.87742 123.262 7.72898 125.042 7.55085V6.89771H117.666V7.55085L118.825 7.63991C120.125 7.72898 120.209 8.05555 119.814 9.18371C119.362 10.4009 118.203 13.1323 117.129 15.4776L117.044 15.3886L112.353 6.9274H110.205L106.135 15.3886L106.05 15.4776L103.139 8.79776C102.743 7.99617 102.828 7.75867 103.987 7.6696L104.976 7.58054V6.9274H95.367V7.58054C96.8366 7.66961 97.3736 7.9071 98.1932 9.51027L98.5888 10.2228H93.9821L90.5342 16.0417L86.6057 10.2228H81.3773V10.6978C83.1295 10.7869 83.3839 11.1135 83.1295 12.9541L82.9034 15.923C82.7621 17.2886 82.6773 18.0308 82.5078 18.5059C82.5078 18.6543 82.423 18.8324 82.2817 18.9215C82.1403 18.9215 81.8295 18.3574 81.5186 17.8824C80.6707 16.3386 79.7663 14.6464 78.8337 12.8948L77.3641 10.1634L75.8944 10.4009L71.5986 17.9715C71.5138 18.0605 71.5138 18.1199 71.4573 18.209C71.316 18.4465 71.1464 18.684 70.9203 18.8621C70.4681 19.1887 69.1681 19.2777 68.3202 19.2777C67.6419 19.2777 67.1615 19.2777 66.7941 19.1293C66.3984 18.9809 66.3419 18.4762 66.3419 17.7636V15.3589H67.4158C69.3377 15.3589 69.3377 15.448 69.5638 16.7245H70.5529V13.251H69.5638C69.3377 14.3792 69.2529 14.4682 67.4158 14.4682H66.3419V11.6478C66.3419 11.1728 66.4267 10.9947 67.1897 10.9947H67.5854C68.7442 10.9947 69.5072 11.0838 69.8181 11.3213C70.2138 11.5588 70.4399 12.0338 70.666 12.776L71.6551 12.6869C71.5704 11.5588 71.429 10.5197 71.429 10.2822H60.9721V10.7572C62.4417 10.8463 62.583 11.0838 62.583 12.5979V17.4371C62.583 18.8027 62.4417 19.0402 61.283 19.2184C61.0569 19.1293 60.8873 18.9809 60.6612 18.8027C60.2656 18.4762 59.8134 18.0012 59.1351 17.2589C58.5133 16.6058 57.6655 15.5667 57.3828 15.1511C58.9938 14.7354 60.209 13.9339 60.209 12.6573C60.209 11.7666 59.5307 11.1135 58.6829 10.8166C57.835 10.4009 56.6763 10.3416 55.0088 10.3416H48.2825C47.8303 9.68841 47.1237 9.12433 46.4454 8.73839C44.3823 7.46179 41.1604 6.95709 37.3733 6.95709H28.3012V7.75867C30.3078 7.84774 30.5905 7.99618 30.5905 10.1041V16.5464C30.5905 18.6543 30.3644 18.8918 28.0469 19.0402V19.7528H36.1581C43.3649 19.7528 49.2151 17.6449 49.2151 12.7463C49.2151 12.0932 48.989 11.4697 48.6781 10.8166C49.6673 10.9056 49.8369 11.2916 49.8369 12.6573V17.4964C49.8369 19.0996 49.6956 19.2778 48.1412 19.3371V19.8121H54.9806V19.3371C53.5109 19.2481 53.2848 19.0106 53.2848 17.4964V15.7151H53.5957C53.9914 15.7151 54.274 15.9527 54.5284 16.2792C55.0653 17.0808 55.6871 17.9715 56.2806 18.6246C57.1285 19.5153 57.8916 19.9012 60.9721 19.9903C61.4243 19.9903 61.7352 19.9012 61.9048 19.9012H74.4813V19.4262L73.8596 19.3371C72.8704 19.2481 72.8704 19.0106 73.1813 18.3574L73.8031 16.9917H77.3358L78.0989 18.5355C78.4098 19.0996 78.325 19.3371 77.5619 19.4262L76.9401 19.5153V19.9903H86.4644V19.5153C84.9948 19.4262 84.4578 19.1887 84.4013 18.6246C84.3165 18.1496 84.3165 17.4965 84.3165 16.2199L84.4578 12.9838H84.5426L88.6971 19.8418H89.9124L94.293 12.5088H94.3778L94.4626 17.6746C94.4626 19.2778 94.3778 19.4559 92.7103 19.5153V19.9903H99.7758V19.5153C98.1649 19.4262 98.0801 19.2778 98.0236 17.6746L97.7975 12.7463C97.7127 11.3806 97.7975 11.1431 98.9562 10.965L103.563 20.1684H105.937L110.092 12.0932H110.176L114.698 20.1684H117.072C118.005 18.2387 118.825 16.3683 119.616 14.7651C119.616 14.9136 119.616 15.0026 119.616 15.1808C119.616 17.8527 122.527 19.9309 127.134 19.9309C131.429 19.9309 134.736 18.0012 134.736 14.8542C134.566 11.915 131.429 9.9853 127.275 9.9853ZM38.0799 18.773C36.6103 18.773 35.932 18.3574 35.932 16.6058V9.03526C35.932 8.56025 35.932 8.05556 36.0733 8.05556C36.2994 7.96649 36.695 7.90712 37.3733 7.90712C39.9734 7.90712 43.4497 9.12433 43.4497 13.3104C43.4497 16.8433 40.7648 18.773 38.0799 18.773ZM55.2914 14.8245C54.8958 15.062 54.3588 15.062 53.6805 15.062H53.3696V11.6775C53.3696 11.1135 53.4544 10.965 54.3588 10.965C55.2067 10.965 56.5067 11.5291 56.5067 12.9838C56.5067 13.6073 56.111 14.3495 55.2914 14.8245ZM74.1705 16.1011L75.4705 13.2807H75.5553L76.9401 16.1011H74.1705ZM127.36 19.0106C125.127 19.0106 123.601 17.0808 123.601 14.4979C123.601 12.0041 125.07 10.6978 126.738 10.6978C128.66 10.6978 130.271 12.301 130.271 15.2104C130.355 17.7933 129.366 19.0106 127.36 19.0106Z" fill="#A2A2A2"/>
<path id="Vector_3" d="M10.0709 13.8449C10.1557 13.8449 10.1557 13.8449 10.2122 13.7558C10.1276 13.5183 10.2122 13.4292 10.4383 13.4292C10.3537 13.5777 10.5798 13.9043 10.8341 13.9933C11.0602 14.0824 11.1449 14.4683 11.1449 14.5574C11.371 14.7949 12.3602 14.7949 12.6145 14.7949C12.6993 14.6465 12.7558 14.5574 13.1516 14.5574C13.4625 14.5574 13.6038 14.6465 13.8299 14.884C13.9712 14.973 13.8298 14.7949 14.2255 14.7355C14.5363 14.7355 14.6777 14.5871 14.8472 14.498C14.9886 14.4089 14.9886 14.3496 15.0733 14.2605C15.1581 14.1714 15.1581 14.1121 15.2147 14.023C15.2994 13.9339 15.2994 13.6964 15.2994 13.6074C15.2994 13.5183 14.9886 13.6964 14.9886 13.6964C14.7625 13.7855 14.6776 13.6074 14.6776 13.548C14.6776 13.4589 14.6776 13.3995 14.5929 13.3995C14.5082 13.3995 14.5082 13.3105 14.5082 13.2511C14.4234 13.2511 14.4233 13.162 14.4233 13.162C14.5081 13.162 14.4233 13.0136 14.4233 13.0136C14.3385 13.0136 14.2821 13.0136 14.2821 12.9245C14.2821 12.8355 14.3668 12.7761 14.4233 12.687C14.5081 12.598 14.5081 12.5386 14.4233 12.4495C14.3385 12.3011 14.3385 12.1229 14.4233 12.0339C14.282 12.0339 14.1972 12.1823 14.1972 12.1823C14.1124 12.0339 14.1124 11.8558 14.1972 11.7667C14.1124 11.8558 14.056 11.9151 14.056 11.9151C14.1407 10.9354 15.2147 10.6385 15.5255 10.5495C16.0625 10.4604 16.8257 10.401 16.7409 10.787C16.7409 10.787 16.8822 10.4604 16.5996 10.3713C16.7409 10.3713 16.9103 10.5198 16.8256 10.6979C16.9103 10.6088 17.0518 10.6088 17.1364 10.6979C17.0518 10.6979 16.9104 10.787 16.9104 10.8463C17.0518 10.8463 17.2213 10.9354 17.3626 11.4995C17.4474 11.737 17.5039 12.5386 17.2213 12.7761V12.687C17.2213 12.687 17.1365 12.8355 16.9104 12.8355C16.9104 12.8355 16.9104 12.9245 16.9104 12.9839C16.9104 12.9839 17.2213 12.8355 17.3626 12.8948C17.3626 12.8948 17.2212 13.2214 17.1364 13.3105C17.3625 13.3105 17.9844 13.7261 17.9844 14.6761C18.0692 14.8246 18.1257 15.5668 18.1257 16.0418C18.6627 15.3293 19.2844 14.1121 19.5952 12.1823C19.9909 10.0745 19.8214 8.05564 18.917 6.06652C17.617 3.09769 14.4515 0.989815 11.484 0.663244C12.1059 0.425737 12.6994 0.33667 13.2364 0.33667C13.1516 0.33667 13.095 0.33667 13.0103 0.33667C8.26222 0.33667 4.02292 3.068 1.875 7.19468C4.61642 8.53065 8.23396 11.5292 10.0709 13.8449Z" fill="#A2A2A2"/>
<path id="Vector_4" d="M8.76997 25.4526C8.91128 25.4526 9.16564 25.3042 9.30695 25.037C9.53304 24.7995 9.84392 24.562 9.92871 24.3838C10.07 24.2354 10.2396 23.9088 10.3809 23.6713C10.5222 23.3447 10.7766 22.9588 10.7766 22.6322C10.6353 22.4838 10.5505 22.4838 10.3809 22.3947C10.2961 22.3056 10.2961 22.2463 10.4657 22.1572C10.607 22.0088 10.6918 21.8306 10.6918 21.8306H10.7766C10.6353 21.7416 10.2396 21.5931 9.70261 21.3556C9.08085 21.1181 7.63949 20.2275 6.87641 19.4259C7.5547 19.8415 8.71344 20.3165 9.87219 20.4056H9.7874C9.7874 20.4056 9.47652 20.1681 9.70261 19.99C9.7874 19.9009 9.70261 19.99 9.92871 20.079C10.07 20.079 10.1548 20.079 10.3244 19.99C10.4657 19.9009 10.7766 19.8415 11.0027 19.6634C11.2288 19.5149 11.3983 19.4259 11.6244 19.0102C11.7092 18.9212 11.7092 18.7727 11.7092 18.5946C11.7092 18.5946 11.7092 18.5946 11.4831 18.5055C11.3418 18.4165 11.257 18.5055 11.257 18.268C11.257 18.0305 11.3418 17.6149 11.3418 17.5555C11.3418 17.4961 11.4266 17.4664 11.6527 17.4664C11.7375 17.2289 11.794 16.9024 11.8788 16.6649C11.8788 16.6649 11.794 16.6649 11.6527 16.6649C11.5679 16.6649 11.5114 16.7539 11.4266 16.7539C11.4266 16.843 11.5114 16.9024 11.5114 16.9914C11.5962 17.2289 11.2853 17.1399 11.2853 17.0805C11.2853 17.0805 11.2005 16.9321 11.2005 16.843C11.0592 16.9321 10.8896 16.843 10.8896 16.7539C10.8048 16.5164 10.8048 16.4274 10.7483 16.2789C10.6635 16.1898 10.5222 16.1898 10.607 16.0414C10.607 15.9523 10.6918 15.893 10.7483 15.893C10.7483 15.893 10.8331 15.8039 10.8896 15.8039C10.8048 15.5664 10.6635 15.2398 10.4374 14.9132C10.1266 14.9132 10.2113 14.8242 10.0418 14.4976C9.90045 14.2601 9.95697 14.2601 9.73088 14.171C9.58956 14.082 9.58956 13.9335 9.64609 13.8445C7.63949 11.4397 3.96543 8.53026 1.6762 7.4021C0.997917 9.24278 0.460938 11.2616 0.460938 13.3695C0.460938 18.8618 3.76759 23.5229 8.43082 25.3932V25.3042C8.45909 25.3042 8.51561 25.4526 8.76997 25.4526Z" fill="#A2A2A2"/>
<path id="Vector_5" d="M12.2219 15.5372C12.1371 15.5372 11.8262 15.4482 11.4588 15.2997C11.2327 15.2107 11.0632 15.0622 10.9219 14.9731C11.0632 15.2107 11.148 15.4482 11.2327 15.6263C11.3741 15.4778 11.5436 15.6263 11.5436 15.7747C11.6284 15.8638 11.6284 15.8638 11.6849 16.0122C11.7697 16.1013 11.911 16.0122 12.0806 16.0122L12.2219 15.5372Z" fill="#A2A2A2"/>
<path id="Vector_6" d="M17.6721 1.28613C19.9048 2.32522 21.7418 4.25497 22.6744 6.36284C24.3702 10.163 24.2006 14.1115 21.6005 17.7335C21.0635 18.446 18.0677 22.0977 12.698 22.0086C12.698 22.0977 12.6132 22.157 12.6132 22.157C12.6132 22.157 12.6132 22.2461 12.698 22.3055C12.7827 22.3946 12.6132 22.6321 12.4719 22.8696C12.2458 23.1071 12.2458 23.3446 12.0762 23.1961C11.9349 23.0477 11.8501 23.1071 11.8501 23.1071C11.8501 23.1071 11.4544 23.5227 11.3131 23.8196C11.1718 24.1462 11.087 24.3837 11.1718 24.7102C11.2566 24.8587 11.2566 25.2743 11.0305 25.3634C10.7196 25.3634 10.4935 25.3634 10.2674 25.5118C10.1261 25.6009 9.87178 25.7493 9.73047 25.8384C10.8044 26.165 11.8784 26.3134 13.0371 26.3134C20.0178 26.3134 25.6985 20.4945 25.6985 13.3396C25.642 7.87695 22.3353 3.21588 17.6721 1.28613Z" fill="#A2A2A2"/>
<path id="Vector_7" d="M15.4414 16.6647C15.4414 16.249 15.3566 15.9521 15.3566 15.9521L14.7344 16.1006C14.8758 16.3381 15.1303 16.8131 15.3566 17.0803C15.4414 16.9912 15.4414 16.9319 15.4414 16.6647Z" fill="#A2A2A2"/>
<path id="Vector_8" d="M13.1208 19.2475C13.2621 19.1585 13.6578 19.0991 13.9687 18.921C13.9687 18.921 13.9687 18.8319 13.8839 18.6834C13.7991 18.5944 13.6578 17.9709 13.4882 17.4069C13.4882 17.4069 13.4035 16.9912 13.3469 16.9912C13.2622 16.9912 13.2621 17.5553 13.2621 17.7037C13.2621 17.9412 13.2621 17.8522 13.2621 17.8522C13.2621 17.8522 13.4035 17.8522 13.4035 17.9412C13.4035 18.0303 13.2621 18.6538 13.2621 18.8319C13.2621 18.921 13.1774 18.921 13.1208 18.8319C12.9795 18.8319 12.7252 18.7428 12.7252 18.7428C12.7252 18.7428 12.6404 19.1585 12.7252 19.4553C12.8382 19.4257 12.9795 19.2475 13.1208 19.2475Z" fill="#A2A2A2"/>
</g>
<defs>
<clipPath id="clip0_36_722">
<rect width="170" height="27" fill="white"/>
</clipPath>
</defs>
</svg>
