<svg width="104" height="39" viewBox="0 0 104 39" fill="none" xmlns="http://www.w3.org/2000/svg">
<g id="unity 1" clip-path="url(#clip0_36_756)">
<path id="Vector" d="M31.3104 30.996L24.6292 19.5273L31.3104 8.05864L34.5313 19.5273L31.3104 30.996ZM16.4405 29.8769L8.04584 21.3804H21.4084L28.0896 32.849L16.4405 29.8769ZM16.4405 9.14268L28.0556 6.17052L21.3743 17.6392H8.01182L16.4405 9.14268ZM33.5034 0.54126L18.3247 4.56238L16.0634 8.51331L11.5067 8.47822L0.371094 19.5273L11.5067 30.5764L16.0634 30.5413L18.3247 34.4923L33.5034 38.5485L37.5805 23.4783L35.2848 19.5624L37.5805 15.6462L33.5034 0.54126ZM67.9715 11.6953C65.9501 11.6953 64.5795 12.5691 63.5516 14.1777H63.4832V12.1148H59.92V27.2896H63.5516V18.6882C63.5516 16.6253 64.8194 15.1915 66.5669 15.1915C68.2115 15.1915 69.4449 16.2058 69.4449 17.989V27.3247H73.0769V17.3943C73.1109 14.0728 71.0551 11.6953 67.9715 11.6953ZM54.4034 20.891C54.4034 22.9191 53.2728 24.3174 51.4226 24.3174C49.7439 24.3174 48.6817 23.3387 48.6817 21.5554V12.1148H45.0497V22.2546C45.0497 25.5762 46.8999 27.7443 50.2235 27.7443C52.3137 27.7443 53.4783 26.9398 54.4722 25.5415H54.575V27.3247H58.0698V12.1148H54.4378V20.891H54.4034ZM75.0299 12.1148H78.6615V27.2896H75.0299V12.1148ZM75.0299 7.39455H78.6615V10.4365H75.0299V7.39455ZM99.2535 12.1148L97.095 18.9678C96.6154 20.3665 96.2383 22.2897 96.2383 22.2897H96.1355C96.1355 22.2897 95.656 20.3665 95.1764 18.9678L92.7435 12.1148H88.8375L92.8463 22.9191C93.703 25.2268 93.977 26.2055 93.977 27.0447C93.977 28.3034 93.3262 29.1079 91.7844 29.1079H90.3794V32.2895H92.7095C95.7244 32.2895 96.7866 31.0658 97.9173 27.7092L103.159 12.1496H99.2535V12.1148ZM85.4455 22.8489V14.807H87.7756V12.1496H85.4455V7.39455H81.8139V12.1148H79.7582V14.7719H81.8139V23.688C81.8139 26.5553 83.9381 27.3247 85.8567 27.3247C87.4329 27.3247 87.844 27.2545 87.844 27.2545V24.3174H86.9189C86.0623 24.3525 85.4455 23.968 85.4455 22.8489Z" fill="#A2A2A2"/>
</g>
<defs>
<clipPath id="clip0_36_756">
<rect width="104" height="39" fill="white"/>
</clipPath>
</defs>
</svg>
