<svg width="116" height="21" viewBox="0 0 116 21" fill="none" xmlns="http://www.w3.org/2000/svg">
<g id="coinb 2" clip-path="url(#clip0_36_720)">
<path id="Vector" d="M23.7384 5.89536C19.5661 5.89536 16.3061 8.99208 16.3061 13.1377C16.3061 17.2833 19.4838 20.3535 23.7384 20.3535C27.993 20.3535 31.2259 17.2303 31.2259 13.1112C31.2259 9.01858 28.0482 5.89536 23.7384 5.89536ZM23.7665 17.3659C21.3906 17.3659 19.6495 15.5616 19.6495 13.1387C19.6495 10.6882 21.3624 8.88505 23.7384 8.88505C26.1425 8.88505 27.8825 10.7158 27.8825 13.1387C27.8825 15.5616 26.1425 17.3659 23.7665 17.3659ZM32.1371 9.0461H34.2096V20.0854H37.5249V6.16446H32.1371V9.0461ZM7.96271 8.88403C9.70375 8.88403 11.0851 9.93394 11.6095 11.4955H15.1187C14.4827 8.15725 11.6647 5.89536 7.99086 5.89536C3.81862 5.89536 0.558594 8.99208 0.558594 13.1387C0.558594 17.2853 3.73626 20.3545 7.99086 20.3545C11.5824 20.3545 14.4556 18.0926 15.0915 14.7268H11.6095C11.1122 16.2884 9.73086 17.3659 7.98982 17.3659C5.58572 17.3659 3.90098 15.5616 3.90098 13.1387C3.90202 10.6882 5.55966 8.88403 7.96271 8.88403ZM95.1294 11.7922L92.6982 11.4425C91.5378 11.2815 90.709 10.9043 90.709 10.0155C90.709 9.0461 91.787 8.56192 93.2507 8.56192C94.8531 8.56192 95.8758 9.23468 96.0968 10.3386H99.3016C98.9419 7.53851 96.7318 5.89638 93.3341 5.89638C89.8249 5.89638 87.5042 7.64656 87.5042 10.1235C87.5042 12.4925 89.0242 13.8665 92.0904 14.2967L94.5216 14.6463C95.7101 14.8073 96.3731 15.266 96.3731 16.1274C96.3731 17.2313 95.2128 17.689 93.6104 17.689C91.6483 17.689 90.5433 16.9082 90.3775 15.7237H87.1174C87.4219 18.4433 89.6039 20.3545 93.5822 20.3545C97.2019 20.3545 99.605 18.7389 99.605 15.9653C99.605 13.4883 97.8651 12.1958 95.1294 11.7922ZM35.8673 0.429717C34.6517 0.429717 33.7394 1.29105 33.7394 2.47551C33.7394 3.65997 34.6506 4.5213 35.8673 4.5213C37.0829 4.5213 37.9951 3.65997 37.9951 2.47551C37.9951 1.29105 37.0829 0.429717 35.8673 0.429717ZM84.5205 10.9308C84.5205 7.91567 82.6418 5.89638 78.6635 5.89638C74.9062 5.89638 72.8065 7.75461 72.3916 10.6087H75.6797C75.8456 9.5048 76.7296 8.58944 78.6082 8.58944C80.294 8.58944 81.1228 9.31622 81.1228 10.2051C81.1228 11.363 79.6028 11.6586 77.7242 11.8472C75.1825 12.1163 72.033 12.9777 72.033 16.2089C72.033 18.7134 73.9398 20.328 76.9788 20.328C79.3547 20.328 80.8466 19.3586 81.593 17.8235C81.7035 19.1966 82.7534 20.0854 84.2181 20.0854H86.1521V17.2048H84.5215L84.5205 10.9308ZM81.2605 14.4312C81.2605 16.2894 79.6029 17.6625 77.5855 17.6625C76.3419 17.6625 75.2919 17.1508 75.2919 16.0744C75.2919 14.7013 76.9778 14.3242 78.5248 14.1631C80.0167 14.0286 80.8455 13.7055 81.2605 13.0857V14.4312ZM63.6614 5.89536C61.8098 5.89536 60.2627 6.64966 59.1576 7.91465V0.295166H55.8423V20.0854H59.1023V18.2547C60.2074 19.5737 61.7827 20.3545 63.6614 20.3545C67.6397 20.3545 70.6516 17.2853 70.6516 13.1387C70.6516 8.99208 67.5844 5.89536 63.6614 5.89536ZM63.1641 17.3659C60.7881 17.3659 59.0471 15.5616 59.0471 13.1387C59.0471 10.7158 60.8152 8.88505 63.1912 8.88505C65.5953 8.88505 67.28 10.6893 67.28 13.1387C67.28 15.5616 65.54 17.3659 63.1641 17.3659ZM47.9128 5.89536C45.7578 5.89536 44.3483 6.75669 43.5195 7.96867V6.16446H40.2313V20.0844H43.5466V12.519C43.5466 10.3916 44.928 8.88403 46.9724 8.88403C48.8792 8.88403 50.0667 10.203 50.0667 12.1153V20.0854H53.3819V11.8737C53.383 8.37232 51.5325 5.89536 47.9128 5.89536ZM115.409 12.681C115.409 8.69647 112.425 5.89638 108.419 5.89638C104.164 5.89638 101.042 9.0196 101.042 13.1387C101.042 17.4739 104.385 20.3545 108.474 20.3545C111.928 20.3545 114.635 18.3617 115.325 15.5351H111.871C111.374 16.7736 110.159 17.4739 108.528 17.4739C106.4 17.4739 104.798 16.1814 104.439 13.9195H115.408V12.681H115.409ZM104.633 11.6036C105.158 9.66483 106.65 8.72297 108.363 8.72297C110.242 8.72297 111.679 9.77288 112.01 11.6036H104.633Z" fill="#A2A2A2"/>
</g>
<defs>
<clipPath id="clip0_36_720">
<rect width="116" height="21" fill="white"/>
</clipPath>
</defs>
</svg>
