<svg width="161" height="63" viewBox="0 0 161 63" fill="none" xmlns="http://www.w3.org/2000/svg">
<g id="nbcu 1" clip-path="url(#clip0_36_733)">
<path id="Vector" d="M109.81 40.0632C105.859 51.8635 94.0789 60.4247 80.4651 60.4247C66.8501 60.4247 55.1094 51.8635 51.1696 40.0632H50.8984C54.567 53.0127 66.4115 62.4997 80.4651 62.4997C94.5176 62.4997 106.366 53.0127 110.032 40.0632H109.81ZM80.4651 1.84727C94.2191 1.84727 106.074 10.6009 109.908 22.588H110.008C106.337 9.64194 94.5176 0.150391 80.4651 0.150391C66.4115 0.150391 54.567 9.63736 50.8984 22.588H51.0442C54.8587 10.5941 66.7054 1.84727 80.4651 1.84727Z" fill="#A2A2A2"/>
<path id="Vector_2" d="M65.2928 27.3372C65.2928 27.1826 65.2416 27.0588 64.8086 27.0244V26.8159H68.3701V27.0244C67.9383 27.0588 67.8848 27.1826 67.8848 27.3372V31.9936C67.8848 35.0506 65.7611 36.0623 63.1156 36.0623C60.4746 36.0623 58.3475 35.0506 58.3475 31.9936V27.3372C58.3475 27.1826 58.2962 27.0588 57.8633 27.0244V26.8159H61.4248V27.0244C60.9907 27.0588 60.9394 27.1826 60.9394 27.3372V31.9936C60.9394 33.3331 61.7336 33.8716 63.1156 33.8716C64.4987 33.8716 65.2928 33.3331 65.2928 31.9936V27.3372Z" fill="#A2A2A2"/>
<path id="Vector_3" d="M81.2704 35.2887C81.2704 35.5785 81.5154 35.6404 81.8446 35.6599V35.9085H78.0427V35.6599C78.2478 35.6599 78.6374 35.6404 78.6374 35.3906C78.6374 34.9163 76.0067 32.5606 73.6836 29.8291L73.6426 29.8703V35.2887C73.6426 35.5785 73.8899 35.6404 74.177 35.6599V35.9085H70.661V35.6599C70.9287 35.6404 71.176 35.5785 71.176 35.2887V27.431C71.176 27.1434 70.9287 27.0781 70.6211 27.0586V26.8123H75.5123V27.0586C75.3277 27.0781 75.0816 27.1434 75.0816 27.431C75.0816 27.5776 77.0754 29.6251 78.8026 31.5042V27.431C78.8026 27.1434 78.5566 27.0781 78.2273 27.0586V26.8123H81.8446V27.0586C81.5154 27.0781 81.2704 27.1434 81.2704 27.431V35.2887Z" fill="#A2A2A2"/>
<path id="Vector_4" d="M88.9553 26.8123V27.0586C88.5428 27.0781 88.299 27.1434 88.299 27.431V35.2887C88.299 35.5785 88.5428 35.6404 88.9553 35.6599V35.9074H84.8867V35.6599C85.2969 35.6404 85.5418 35.5785 85.5418 35.2887V27.431C85.5418 27.1434 85.2969 27.0781 84.8867 27.0586V26.8123H88.9553Z" fill="#A2A2A2"/>
<path id="Vector_5" d="M91.2148 26.8123H95.0976V27.0586C94.9335 27.0586 94.5849 27.0586 94.5849 27.2671C94.5849 27.4951 96.2939 31.9189 96.4374 32.54H96.475C97.1939 30.7823 98.6136 27.4505 98.6136 27.2671C98.6136 27.0586 98.266 27.0586 98.1441 27.0586V26.8123H101.574V27.0586C101.348 27.0781 101.204 27.1434 101.146 27.3485C100.876 28.2181 97.9573 35.1661 97.9573 35.3288C97.9573 35.5545 98.2022 35.6817 98.3891 35.6599V35.9074H94.0517V35.6599C94.2374 35.6816 94.4812 35.5545 94.4812 35.3288C94.4812 35.2451 91.8494 27.3485 91.5645 27.1652C91.3971 27.0586 91.315 27.0586 91.2148 27.0586V26.8123Z" fill="#A2A2A2"/>
<path id="Vector_6" d="M112.187 34.0438C112.432 34.0438 112.64 33.8994 112.723 33.5247H112.972V36.2952H112.762C112.621 35.9217 112.516 35.8609 112.187 35.8609H103.016V35.6157C103.306 35.594 103.594 35.5321 103.594 35.2422V27.3868C103.594 27.097 103.306 27.0351 103.016 27.0133V26.7647H112.352C112.516 26.7647 112.723 26.6856 112.723 26.3098H112.972V29.0814H112.723C112.723 28.669 112.516 28.5853 112.352 28.5853H106.348V30.2593H110.215C110.377 30.2593 110.586 30.1791 110.586 29.7838H110.832V32.474H110.586C110.586 32.0776 110.377 31.9974 110.215 31.9974H106.348V34.0438H112.187Z" fill="#A2A2A2"/>
<path id="Vector_7" d="M115.616 27.3534C115.616 27.0647 115.371 27.0028 115.164 26.9822V26.7324H121.764C123.782 26.7324 125.137 27.7258 125.137 29.6083C125.137 31.0955 124.129 31.9044 122.853 32.4005L124.683 35.1676C124.83 35.3967 125.112 35.5835 125.403 35.5835V35.8287H121.251V35.5835C121.435 35.5835 121.746 35.5193 121.746 35.3154C121.746 35.0438 120.345 32.7935 120.181 32.4441H118.207V35.2123C118.207 35.501 118.455 35.5617 118.743 35.5835V35.8287H115.208V35.5835C115.371 35.5617 115.616 35.501 115.616 35.2123V27.3534ZM118.207 30.7037H121.131C121.991 30.7037 122.547 30.3347 122.547 29.5865C122.547 28.946 122.194 28.4728 120.982 28.4728H118.207V30.7037Z" fill="#A2A2A2"/>
<path id="Vector_8" d="M127.91 32.7761L128.178 32.8999C128.178 32.9629 128.157 33.0202 128.157 33.1233C128.157 33.6607 130.522 34.2003 132.19 34.2003C132.698 34.2003 134.058 34.1178 134.058 33.3123C134.058 31.6968 127.332 33.2677 127.332 29.7983C127.332 28.5139 128.549 26.7139 131.896 26.7139C133.851 26.7139 135.535 27.2547 135.988 27.2547C136.219 27.2547 136.336 27.0885 136.441 27.0049L136.669 27.0885L135.434 29.694L135.168 29.5703C135.168 29.5084 135.188 29.4259 135.188 29.34C135.188 29.136 133.731 28.5792 132.348 28.5792C131.837 28.5792 130.011 28.5792 130.011 29.4866C130.011 30.9532 136.728 29.4431 136.728 33.0431C136.728 34.6575 135.355 36.0622 132.206 36.0622C130.235 36.0622 127.933 35.3197 127.767 35.3197C127.583 35.3197 127.438 35.4595 127.293 35.6096L127.07 35.5432L127.91 32.7761Z" fill="#A2A2A2"/>
<path id="Vector_9" d="M146.12 35.9079V35.6604C146.199 35.6604 146.384 35.6604 146.384 35.4748C146.384 35.2445 145.934 34.4413 145.788 34.0666H141.017C140.897 34.4413 140.422 35.2445 140.422 35.4748C140.422 35.6604 140.605 35.6604 140.69 35.6604V35.9079H137.605V35.6604C137.771 35.6604 137.955 35.5985 138.018 35.4541C139.662 31.5883 141.571 27.5552 141.571 27.2676C141.571 27.121 141.511 27.0786 141.308 27.0591V26.8127H145.601V27.0591C145.398 27.0786 145.336 27.121 145.336 27.2676C145.336 27.5151 148.215 33.3219 149.117 35.4541C149.182 35.5985 149.366 35.6604 149.527 35.6604V35.9079H146.12ZM145.09 32.5794L143.362 28.9634L141.679 32.5794H145.09Z" fill="#A2A2A2"/>
<path id="Vector_10" d="M151.516 27.3785C151.516 27.0932 151.27 27.0279 150.961 27.0084V26.7598H154.808V27.0084C154.516 27.0279 154.269 27.0932 154.269 27.3785V33.749H159.902C160.072 33.749 160.271 33.6676 160.271 33.2299H160.517V36.3739H160.271C160.271 35.9385 160.072 35.8549 159.902 35.8549H150.961V35.6097C151.27 35.5913 151.516 35.5272 151.516 35.2385V27.3785Z" fill="#A2A2A2"/>
<path id="Vector_11" d="M0.781579 27.3228C0.781579 27.1704 0.730309 27.0467 0.300781 27.0123V26.8049H4.4411V27.0123C4.04575 27.0295 3.96031 27.1326 3.96031 27.2346C3.96031 27.4282 6.93281 30.6032 8.13366 31.9345V27.3228C8.13366 27.1166 7.99467 27.0295 7.77136 27.0123V26.8049H10.9171V27.0123C10.4875 27.0467 10.4363 27.1704 10.4363 27.3228V35.373C10.4363 35.5288 10.4875 35.6503 10.9171 35.6835V35.8909H7.65286V35.6835C7.96276 35.6835 8.04935 35.6159 8.04935 35.4956C8.04935 35.2676 7.61869 35.0419 3.08416 29.9489V35.373C3.08416 35.5288 3.13543 35.6503 3.56382 35.6835V35.8909H0.300781V35.6835C0.730309 35.6503 0.781579 35.5288 0.781579 35.373V27.3228Z" fill="#A2A2A2"/>
<path id="Vector_12" d="M13.6031 27.3228C13.6031 27.1704 13.5507 27.0467 13.1211 27.0123V26.8049H19.6654C21.5191 26.8049 22.8772 27.4947 22.8772 29.2065C22.8772 30.2411 22.1902 30.8793 21.2275 31.0901V31.1222C22.3793 31.4361 23.2201 32.0548 23.2201 33.3347C23.2201 34.7153 22.1902 35.8909 19.7509 35.8909H13.1211V35.6835C13.5507 35.6503 13.6031 35.5288 13.6031 35.373V27.3228ZM16.1791 30.2239H18.5159C19.989 30.2239 20.3707 30.1231 20.3707 29.4253C20.3707 28.7367 19.989 28.6347 18.5159 28.6347H16.1791V30.2239ZM16.1791 34.0576H19.0992C20.3012 34.0576 20.782 33.7838 20.782 33.023C20.782 32.2668 20.3012 31.9849 19.0992 31.9849H16.1791V34.0576Z" fill="#A2A2A2"/>
<path id="Vector_13" d="M33.3659 30.1544L33.1916 30.0364C33.2086 29.9653 33.2292 29.8989 33.2292 29.7751C33.2292 29.4257 31.9041 28.9811 30.4458 28.9811C29.0535 28.9811 27.25 29.5872 27.25 31.3448C27.25 33.1105 29.0535 33.7154 30.4458 33.7154C31.0462 33.7154 33.3294 33.2445 33.3294 32.7472C33.3294 32.6418 33.261 32.5731 33.2292 32.4872L33.4149 32.3646L35.1854 35.0789L34.978 35.1992C34.9267 35.0789 34.8607 35.0617 34.7399 35.0617C34.3947 35.0617 32.7962 35.9966 30.2396 35.9966C27.4881 35.9966 24.5703 34.4407 24.5703 31.3448C24.5703 28.2535 27.4881 26.6987 30.2396 26.6987C31.6113 26.6987 32.5923 26.8729 33.2781 27.0642C33.9492 27.2544 34.2921 27.3931 34.4642 27.3931C34.5667 27.3931 34.6545 27.3392 34.724 27.2544L34.9108 27.3071L33.3659 30.1544Z" fill="#A2A2A2"/>
<path id="Vector_14" d="M53.1297 31.6498C54.1266 31.8377 54.8808 32.7177 54.8808 33.7741C54.8808 34.9164 53.9979 35.8513 52.879 35.9281L40.6085 35.9361C39.4224 35.9361 38.4609 34.9702 38.4609 33.7763C38.4609 32.7028 39.239 31.8136 40.2599 31.6475C39.8736 31.2545 39.6355 30.7171 39.6355 30.1236C39.6355 28.9309 40.5971 27.9639 41.7866 27.9639C42.1181 27.9639 42.4325 28.0406 42.7151 28.177C42.706 28.1002 42.7026 28.0212 42.7026 27.9432C42.7026 26.7493 43.663 25.7823 44.8502 25.7823C45.6306 25.7823 46.312 26.2017 46.6914 26.8273C47.0639 26.1994 47.7475 25.78 48.5291 25.78C49.7151 25.78 50.6779 26.7482 50.6779 27.9409C50.6779 28.0257 50.6733 28.1094 50.6619 28.193C50.9456 28.0544 51.2635 27.9765 51.5996 27.9765C52.7868 27.9765 53.7472 28.9435 53.7472 30.1362C53.7472 30.7252 53.5102 31.2614 53.1297 31.6498Z" fill="#A2A2A2"/>
<path id="Vector_15" fill-rule="evenodd" clip-rule="evenodd" d="M47.7433 28.0453C47.6522 28.1645 47.0871 28.3604 47.0563 28.6606C47.0267 29.1407 47.7433 33.6321 47.7433 33.6321C47.7433 33.6321 48.8348 31.1698 49.3418 30.0871C49.9548 28.7649 50.2521 28.3146 50.0892 27.6397C49.924 26.6773 49.0889 26.243 48.3404 26.3175C47.5052 26.4516 46.9219 27.0978 46.9219 27.9548H47.5645C47.5645 27.9548 47.7285 27.9708 47.7433 28.0453Z" fill="#A2A2A2"/>
<path id="Vector_16" fill-rule="evenodd" clip-rule="evenodd" d="M52.5673 28.8549C51.9999 28.4356 50.6407 28.2098 50.0585 29.5916L47.7422 34.7442L52.4328 31.5452C53.7317 30.5667 53.1506 29.3063 52.5673 28.8549Z" fill="#A2A2A2"/>
<path id="Vector_17" fill-rule="evenodd" clip-rule="evenodd" d="M46.4431 28.1204C46.638 26.9036 45.4565 26.2425 44.6487 26.3181C43.9628 26.451 42.8873 27.1889 43.3043 28.4802L45.5898 33.6785L46.4431 28.1204Z" fill="#A2A2A2"/>
<path id="Vector_18" fill-rule="evenodd" clip-rule="evenodd" d="M40.8443 35.4346H45.7583L41.4562 32.4166C40.3954 31.7395 39.2766 32.49 39.067 33.2714C38.797 34.1616 39.1388 35.3739 40.8443 35.4346Z" fill="#A2A2A2"/>
<path id="Vector_19" fill-rule="evenodd" clip-rule="evenodd" d="M40.7965 31.4255L45.5908 34.7437C45.5908 34.7437 43.6049 30.2523 43.2164 29.3826C42.7082 28.3148 41.4083 28.3606 40.7965 28.8246C40.0798 29.3666 39.8258 30.6292 40.7965 31.4255Z" fill="#A2A2A2"/>
<path id="Vector_20" fill-rule="evenodd" clip-rule="evenodd" d="M47.5625 35.4346C47.5625 35.4346 52.1483 35.4484 52.7898 35.4209C54.059 35.3601 54.419 34.1617 54.3438 33.5876C54.149 32.6561 53.2239 31.6501 51.8339 32.4762L47.5625 35.4346Z" fill="#A2A2A2"/>
</g>
<defs>
<clipPath id="clip0_36_733">
<rect width="161" height="63" fill="white"/>
</clipPath>
</defs>
</svg>
