<svg width="65" height="39" viewBox="0 0 65 39" fill="none" xmlns="http://www.w3.org/2000/svg">
<g id="amc 1" clip-path="url(#clip0_36_715)">
<path id="Vector" d="M35.1392 12.2461C35.1392 12.2461 32.589 21.8856 32.3758 22.9142L29.5946 12.2461H24.332V27.0441H27.7774V16.1614L30.7919 27.0441H33.9685C33.9685 27.0441 36.9052 16.5035 36.9785 16.186V27.0441H40.4373V12.2461H35.1392Z" fill="#A2A2A2"/>
<path id="Vector_2" d="M19.0047 21.3951C19.0047 21.8334 19.0047 22.2671 18.8003 22.7032C18.4227 23.5774 17.1743 24.3936 15.4038 24.3936C14.011 24.3936 13.0513 23.8122 13.0513 22.6741C13.0513 21.1357 14.493 20.7891 15.7415 20.6304C17.312 20.4358 19.0047 20.3777 19.0047 20.3777V21.3951ZM22.4879 24.682V16.97C22.4879 15.3981 22.459 14.0297 20.7441 12.9832C19.469 12.2252 17.7852 12.0508 16.3879 12.0508C15.4593 12.0508 12.0073 12.0508 10.61 14.5842C10.159 15.4093 10.0924 16.0108 10.0324 16.7151V16.7196L13.6022 16.7151C13.6067 16.3909 13.6511 16.0577 13.951 15.6888C14.302 15.2237 15.0817 14.7586 16.5367 14.7586C19.4001 14.7586 18.9781 17.652 18.9781 17.652C18.9781 17.652 17.5475 17.6699 14.5019 18.0478C13.0957 18.2222 10.8743 18.7745 9.82809 20.8696C9.53264 21.4555 9.35938 22.124 9.35938 22.8485C9.35938 25.3528 11.3386 27.3921 14.6174 27.3921C16.6189 27.3921 18.1628 26.5469 18.9136 25.9074C18.9136 26.1109 18.9736 26.6945 19.0047 27.0433H22.5501C22.4879 24.682 22.4879 25.7889 22.4879 24.682Z" fill="#A2A2A2"/>
<path id="Vector_3" d="M55.737 21.2964L52.3582 21.3009C52.2538 21.71 51.5496 24.3798 48.9172 24.3798C48.8817 24.3798 48.4619 24.3798 48.4174 24.3776C46.4826 24.3172 44.8987 22.7028 44.8987 19.5187C44.8987 17.0748 46.1183 14.879 48.4485 14.8231H48.9172C51.3253 14.8231 52.1716 17.3498 52.2227 17.5041L55.5948 17.5153C54.9395 14.3603 52.4782 11.7844 48.7506 11.7844C44.5699 11.7844 41.5977 15.2435 41.5977 19.6238C41.5977 24.6348 44.7565 27.4812 48.664 27.4812C53.0202 27.4812 55.2772 24.1428 55.737 21.2964Z" fill="#A2A2A2"/>
<path id="Vector_4" d="M61.2977 35.0243H3.26771V4.62345H61.2977V35.0243ZM0 38.1883H64.5077V1.46167H0V38.1883Z" fill="#A2A2A2"/>
</g>
<defs>
<clipPath id="clip0_36_715">
<rect width="65" height="38" fill="white" transform="translate(0 0.5)"/>
</clipPath>
</defs>
</svg>
