<svg width="87" height="41" viewBox="0 0 87 41" fill="none" xmlns="http://www.w3.org/2000/svg">
<g id="trolls 1" clip-path="url(#clip0_36_754)">
<path id="Vector" d="M10.5008 15.7427C8.48823 15.7235 6.5003 15.213 4.75948 14.2057C2.93355 13.1491 1.67049 11.8454 0.912657 9.54264C0.610623 8.62594 0.583165 7.75864 0.602385 7.2701C0.605131 7.16581 0.747911 7.1411 0.789098 7.23442C1.43985 8.66162 2.313 9.21878 2.313 9.21878C1.23117 7.78883 0.989538 6.40006 0.937369 5.76331C0.929132 5.66999 1.0527 5.63431 1.09937 5.7139C2.12904 7.47046 3.58155 8.25267 3.58155 8.25267C3.01043 7.62141 2.69192 7.1411 2.52443 6.8392C2.48049 6.76235 2.5766 6.68275 2.64524 6.73765C3.21087 7.19325 4.61396 8.12368 6.98355 8.49969C16.8655 10.0641 23.5872 5.07441 35.0343 5.33515C36.8986 5.37632 38.774 5.64803 40.3775 6.65531C42.9997 8.30208 43.2523 11.3294 42.0085 13.6047C41.9261 13.7529 41.7065 13.7309 41.6543 13.569C41.355 12.6496 40.5533 11.9167 39.6526 11.5297C38.6065 11.0796 37.4396 11.0165 36.3001 11.0083C33.0216 10.9808 29.7404 11.3321 26.5416 12.0512C25.4653 12.2928 24.2928 12.537 23.5295 13.333C22.7168 14.181 22.7634 15.2158 22.7332 16.4399V40.0793C22.7332 40.3784 22.4889 40.6227 22.1896 40.6227H16.1901C15.8908 40.6227 15.6464 40.3784 15.6464 40.0793V15.224C13.9276 15.6933 12.3872 15.7619 10.4981 15.7427H10.5008ZM33.5241 19.4754C34.6718 18.5916 36.2342 18.3776 37.1485 18.4132C37.6922 18.4325 37.8212 18.3199 37.9146 17.9576L38.9497 13.7776C39.0239 13.4949 38.8207 13.2122 38.5296 13.193C37.1512 13.1052 33.5159 13.0997 30.9486 15.1719C30.7921 14.8864 30.49 14.6778 30.1441 14.6778H24.3642C24.1061 14.6778 23.9002 14.9056 23.9716 15.1554C24.7157 17.7353 24.4631 26.0762 24.4631 26.0762L24.3834 34.1372C24.3834 34.4363 24.6278 34.6806 24.9271 34.6806H30.5202C30.8195 34.6806 31.0337 34.4363 31.0337 34.1372V26.6608C31.1215 22.7223 31.797 20.8066 33.5268 19.4754H33.5241ZM62.1048 36.2395V13.418C62.113 12.1802 62.8461 11.2525 63.2553 10.8793C63.3843 10.7613 63.2992 10.5472 63.1235 10.5472H55.5149C55.2156 10.5472 54.9685 10.7942 54.9685 11.0934V36.2395C54.9685 36.5387 55.2156 36.7857 55.5149 36.7857H61.5584C61.8577 36.7857 62.102 36.5414 62.102 36.2395H62.1048ZM64.2547 40.5239H70.2981C70.5974 40.5239 70.8418 40.2769 70.8418 39.9777V16.4426C70.8198 15.1225 71.5777 14.1838 72.0225 13.8078C72.1598 13.6898 72.0801 13.4674 71.8989 13.4702H64.252C63.9527 13.4702 63.7056 13.7172 63.7056 14.0164V39.9777C63.7056 40.2769 63.9499 40.5239 64.252 40.5239H64.2547ZM85.8968 27.7834C84.8672 25.8265 83.0358 24.5447 81.2702 23.2108C80.8309 22.8787 80.3861 22.5274 80.0841 22.0663C79.664 21.4268 79.5431 20.5239 80.2323 19.9447C80.6085 19.6291 81.1192 19.5166 81.597 19.6236C82.4289 19.8103 82.9451 20.4964 83.1566 21.2429C83.1978 21.3912 83.2335 21.5421 83.2472 21.6958C83.2692 21.9044 83.2856 22.0252 83.3927 22.0636C83.4916 22.0993 83.8567 21.8413 83.9583 21.7589C84.1615 21.5943 84.3427 21.4049 84.4993 21.1963C84.8205 20.7709 85.0457 20.2768 85.1747 19.7609C85.3038 19.2394 85.334 18.6932 85.2543 18.1607C85.2159 17.911 85.1555 17.6667 85.0649 17.4307C84.4169 15.7125 82.7639 14.6229 80.7925 14.4363C78.5574 14.225 76.6711 14.5488 75.0566 15.8827C71.5228 18.803 72.525 22.5631 73.0604 23.9244C73.8814 26.0186 75.905 27.1411 77.4564 28.7714C77.8298 29.1612 78.3872 29.7897 78.5904 30.2865C78.7963 30.786 78.8375 31.3761 78.5904 31.8564C78.1236 32.7649 76.7727 33.0009 75.6744 32.6386C74.1202 32.1281 72.827 30.8491 72.3767 29.2929C72.3245 29.109 72.0609 29.1118 72.0088 29.2929C71.66 30.4621 71.4678 31.6807 71.5612 32.8938C71.6738 34.3512 72.2229 35.8031 73.2553 36.8379C74.4497 38.0345 76.1823 38.5587 77.871 38.6411C80.9517 38.792 83.3543 37.7244 85.0237 35.482C86.6547 33.2863 87.1736 30.1959 85.8996 27.7779L85.8968 27.7834ZM50.633 21.0261C49.9548 22.0554 49.0459 22.8623 47.9476 23.4002C47.231 23.7515 46.6241 23.9821 45.8691 24.1248C45.729 24.1495 45.6988 24.3334 45.8224 24.402C47.0388 25.0882 47.6922 26.2738 47.6922 27.712C47.6922 29.8857 45.8279 31.6505 43.5269 31.6505C41.226 31.6505 39.3616 29.8885 39.3616 27.712C39.3616 25.5355 41.226 23.7762 43.5269 23.7762C43.5709 23.7762 43.5956 23.7707 43.656 23.7707C45.0124 23.6857 46.4567 23.5704 47.7005 22.8842C51.4787 20.8066 51.3167 16.6402 51.0613 15.858C51.0064 15.6878 50.773 15.6769 50.7016 15.8388C50.622 16.0227 50.5149 16.2313 50.3749 16.4152C50.0646 16.8214 49.0239 18.0729 45.3172 17.793C44.6225 17.7271 44.0212 17.6749 43.3539 17.6749C37.4752 17.6749 32.7113 22.36 32.7113 28.1374C32.7113 33.9148 37.4752 38.5999 43.3539 38.5999C49.2326 38.5999 53.9965 33.9148 53.9965 28.1374C53.9965 25.3544 52.9422 22.8485 51.1354 20.974C50.9899 20.823 50.7428 20.8505 50.6247 21.0261H50.633ZM2.95277 3.66916H0.627097V3.49076C1.28609 3.45783 1.35748 3.38921 1.35748 2.7854V0.943758C1.35748 0.342687 1.28609 0.304263 0.701233 0.271327V0.0517578H3.33168C4.44097 0.0517578 5.3608 0.186244 5.96487 0.548533C6.13236 0.652829 6.3026 0.787315 6.44538 0.962971H8.49372C8.98522 0.962971 9.31196 0.998651 9.55634 1.10295C9.80895 1.20724 9.99566 1.39388 9.99566 1.64089C9.99566 2.00867 9.64969 2.22275 9.18566 2.34351C9.27352 2.45879 9.50691 2.74697 9.68813 2.9391C9.9023 3.15866 10.0395 3.30413 10.1411 3.38372C10.1851 3.4194 10.2318 3.45234 10.2867 3.46606C10.3526 3.48527 10.4212 3.48253 10.4899 3.46881C10.6766 3.42489 10.704 3.31511 10.704 2.99948V1.62717C10.704 1.17705 10.6519 1.1249 10.2263 1.1002V0.962971H13.2411C13.2466 1.03433 13.2796 1.33898 13.3098 1.64913L13.0297 1.66285C12.9665 1.45975 12.8951 1.32252 12.7936 1.2539C12.692 1.18254 12.4833 1.15784 12.1456 1.15784H12.0385C11.7968 1.15784 11.7831 1.17705 11.7831 1.32526V2.1212H12.1016C12.648 2.1212 12.6672 2.10473 12.7304 1.7891H13.0105V2.77167H12.7304C12.6672 2.40389 12.648 2.38743 12.1016 2.38743H11.7831V3.05711C11.7831 3.27394 11.7968 3.38647 11.9094 3.42489C12.011 3.45783 12.1565 3.46332 12.3542 3.46332C12.6096 3.46332 12.9693 3.43862 13.1093 3.33706C13.1587 3.30413 13.2082 3.24375 13.2548 3.18062C13.2686 3.15866 13.2823 3.13671 13.296 3.11201L14.5481 0.957481L14.9792 0.899844C14.9792 0.899844 15.9429 2.67287 16.1818 3.09828C16.2669 3.25198 16.3658 3.40842 16.4097 3.40019C16.4482 3.39196 16.4564 3.33706 16.4674 3.29315C16.5003 3.16415 16.5388 2.94458 16.5717 2.56308L16.6431 1.72048C16.6898 1.19626 16.6376 1.1249 16.1214 1.09746V0.960226H17.6508L18.7903 2.60974L19.787 0.960226H21.1187L21.0089 0.746146C20.7673 0.276816 20.6053 0.276816 20.1961 0.243881V0.0545024H22.9858V0.246626L22.7003 0.268583C22.3708 0.296029 22.3433 0.328964 22.4504 0.559512L23.2989 2.43957L24.4878 0.0517578H25.1138L26.4894 2.43957C26.8025 1.77812 27.1319 0.990417 27.2583 0.658318C27.3736 0.337198 27.3489 0.29054 26.9645 0.265838L26.624 0.243881V0.0545024H28.7602V0.246626C28.2605 0.29054 28.1781 0.28505 27.8761 0.781826C27.8568 0.814761 27.714 1.08099 27.4971 1.50366C27.8486 1.13588 28.3895 0.858675 29.3286 0.858675C30.5092 0.858675 31.5114 1.39662 31.5334 2.19805V1.61345C31.5334 1.16882 31.5224 1.12765 31.0941 1.10295L31.0529 0.962971H33.0875C33.5872 0.962971 33.9195 0.993161 34.1693 1.09471C34.4247 1.19626 34.6169 1.39662 34.6169 1.64089C34.6169 2.00318 34.2654 2.21726 33.7904 2.33528C33.881 2.45055 34.1172 2.76344 34.3011 2.95282C34.4 3.05711 34.4988 3.16141 34.5977 3.2657C34.6883 3.36177 34.7954 3.46057 34.9299 3.48253C35.0288 3.499 35.1688 3.47978 35.21 3.37274C35.2402 3.29315 35.2457 3.17513 35.2457 3.01594V1.6107C35.2457 1.16607 35.1935 1.1249 34.7487 1.1002V0.960226H36.7339V1.1002C36.3138 1.1249 36.2644 1.16882 36.2644 1.6107V2.25294C36.7284 1.91535 37.1156 1.6107 37.4862 1.30056C37.5741 1.22645 37.6455 1.11392 37.4725 1.10295H37.2309V0.962971H38.936V1.13039C38.5736 1.15509 38.3759 1.16058 38.0464 1.36917C37.7031 1.58325 37.3846 1.79185 37.1183 1.99495C37.5137 2.38468 37.931 2.8101 38.3319 3.15318C38.5571 3.34804 38.7108 3.43313 38.8619 3.47155C38.8619 3.47155 38.9003 3.47978 38.9497 3.49076L38.925 3.41117C38.8756 3.25747 38.8152 3.08182 38.7575 2.87871L39.0403 2.82382C39.1749 3.0626 39.5538 3.50449 40.1853 3.50449C40.5203 3.50449 40.7839 3.37823 40.7839 3.11201C40.7839 2.87048 40.5395 2.72501 40.1386 2.61797L40.0425 2.59053C39.5071 2.43957 38.9113 2.22001 38.9113 1.78087C38.9113 1.31703 39.4412 0.938269 40.4544 0.938269C40.6548 0.938269 40.8608 0.954737 41.0475 0.987672C41.1958 1.01237 41.3001 1.02884 41.3825 1.04531C41.4072 1.2045 41.4539 1.4076 41.5253 1.68755L41.2397 1.715C41.0969 1.44328 40.8718 1.16607 40.3611 1.16607C40.0316 1.16607 39.7982 1.31428 39.7982 1.50915C39.7982 1.70402 40.0425 1.8385 40.4626 1.95378L40.6054 1.99495C41.1985 2.16237 41.7092 2.37645 41.7092 2.8595C41.7092 3.36451 41.0695 3.73503 40.07 3.73503C40.0068 3.73503 39.9437 3.73503 39.8805 3.72954C39.6581 3.72954 39.4055 3.69661 39.2325 3.67191H37.64C37.3984 3.40842 36.7366 2.80735 36.2726 2.35998H36.2589V3.01869C36.2451 3.46332 36.311 3.50449 36.7614 3.52919V3.67465H34.573C34.4357 3.67465 34.2984 3.67465 34.1639 3.66093C33.8975 3.63074 33.6504 3.50723 33.4582 3.3206C33.255 3.12298 33.1012 2.88146 32.9447 2.64542C32.8871 2.55759 32.7965 2.49721 32.6757 2.49721H32.5933V3.02143C32.5933 3.46606 32.6454 3.50723 33.0875 3.53193V3.6774H31.0254V3.53193C31.4812 3.50723 31.5307 3.46606 31.5307 3.02143V2.26117C31.5087 3.12298 30.5642 3.72131 29.3258 3.72131C28.0078 3.72131 27.1512 3.05711 27.1512 2.2996C27.1512 2.26117 27.1512 2.22275 27.1594 2.18158C26.937 2.62895 26.6844 3.1175 26.4263 3.6774H25.7371L24.4219 1.42407H24.4054L23.2082 3.6774H22.5191L21.1929 1.11392C20.8689 1.1496 20.8496 1.23469 20.8661 1.61345L20.932 3.00771C20.9512 3.46881 20.965 3.51272 21.4345 3.54291V3.67465H19.3971V3.52919C19.8859 3.499 19.9051 3.47155 19.8996 3.00771L19.8804 1.54208H19.8529L18.5679 3.67465H18.2714L17.0522 1.68755H17.0385L16.9918 2.61249C16.9726 2.97203 16.9781 3.16964 17.0056 3.29864C17.0303 3.45234 17.1731 3.51821 17.5986 3.52919V3.67465H14.8337V3.52919H15.0204C15.251 3.50449 15.2647 3.43313 15.1824 3.28217L14.9572 2.86499H13.9303L13.7436 3.25747C13.6557 3.43587 13.6612 3.50723 13.9495 3.52919H14.1307V3.67465H9.97918C9.70461 3.67465 9.43278 3.67191 9.18017 3.5484C8.80949 3.36726 8.57335 2.9885 8.35094 2.65914C8.29328 2.57132 8.20542 2.50819 8.08735 2.50819H8.00498V3.00771C8.00498 3.45783 8.0544 3.50449 8.48823 3.52919V3.67465H6.5003V3.52919C6.94786 3.50449 6.99728 3.45783 6.99728 3.00771V1.62717C6.99728 1.38564 6.98081 1.25664 6.90393 1.18528C6.86274 1.1496 6.79959 1.13588 6.79135 1.13314C6.70898 1.11941 6.62111 1.12216 6.62111 1.12216H6.56345C6.66504 1.28958 6.73369 1.47896 6.73369 1.68755C6.73369 3.07633 5.03131 3.66367 2.94728 3.66367L2.95277 3.66916ZM32.5933 2.29685H32.6839C32.8898 2.29685 33.0436 2.28588 33.1644 2.22824C33.428 2.0965 33.5241 1.90437 33.5241 1.70127C33.5241 1.30605 33.1342 1.13039 32.8843 1.13039C32.6152 1.13039 32.596 1.17156 32.596 1.33624V2.29685H32.5933ZM28.3675 2.27215C28.3675 2.81559 28.6915 3.46881 29.3313 3.46881C29.8914 3.46881 30.3198 2.87597 30.3198 2.29411C30.3198 1.46798 29.8942 1.07276 29.3341 1.07276C28.8316 1.07276 28.3675 1.55581 28.3675 2.2749V2.27215ZM14.0429 2.59327H14.8446L14.4493 1.80557H14.43L14.0429 2.59327ZM8.01047 1.34996V2.30783H8.09833C8.29877 2.30783 8.44979 2.29685 8.57061 2.23647C8.82871 2.10199 8.92206 1.90712 8.92206 1.70402C8.92206 1.3033 8.53766 1.14137 8.29328 1.14137C8.02969 1.14137 8.01047 1.18528 8.01047 1.34996ZM2.88961 2.79089C2.88961 3.28766 3.08731 3.41117 3.52114 3.41117C4.29545 3.41117 5.08074 2.85127 5.08074 1.86595C5.08074 0.669297 4.09775 0.334453 3.33168 0.334453C3.123 0.334453 3.00768 0.350921 2.94453 0.372878C2.9006 0.383856 2.88961 0.512854 2.88961 0.652829V2.79363V2.79089Z" fill="#A2A2A2"/>
</g>
<defs>
<clipPath id="clip0_36_754">
<rect width="87" height="41" fill="white"/>
</clipPath>
</defs>
</svg>
